<svg width="68" height="65" viewBox="0 0 68 65" fill="none" xmlns="http://www.w3.org/2000/svg">
<ellipse cx="34" cy="32.5" rx="34" ry="32.5" fill="#004AAD"/>
<path d="M45.2985 35.2333C45.1911 35.3734 44.7858 35.9727 44.4082 36.4657C42.1944 39.5663 36.4195 44.6413 33.3969 46.1904C32.9378 46.4393 31.7773 46.9662 31.1572 47C30.5631 47 29.9967 46.826 29.4562 46.4732C28.7825 45.9802 28.242 45.2044 27.9458 44.2885C27.7552 43.6529 27.459 41.751 27.459 41.7172C27.1629 39.6364 27 36.2555 27 32.5193C27 28.9596 27.1629 25.7164 27.4054 23.6043C27.4331 23.5704 27.7293 21.2069 28.0532 20.3973C28.6473 18.9183 29.8079 18 31.0499 18H31.1572C31.9661 18.0362 33.6671 18.9546 33.6671 18.9884C36.5268 20.5399 42.1685 25.366 44.4359 28.5729C44.4359 28.5729 45.0745 29.397 45.3522 29.9117C45.7853 30.6512 46 31.5672 46 32.4831C46 33.5053 45.7575 34.4575 45.2985 35.2333Z" fill="#FEFEFE"/>
</svg>
