<svg width="1474" height="776" viewBox="0 0 1474 776" fill="none" xmlns="http://www.w3.org/2000/svg">
<rect width="1474" height="776" rx="70" fill="white"/>
<path d="M111.838 280H105.967L104.086 273.883H94.7344L92.8711 280H87L96.0703 254.195H102.732L111.838 280ZM102.803 269.312L99.8848 259.908C99.6621 259.135 99.5098 258.561 99.4277 258.186C99.041 259.674 97.9336 263.383 96.1055 269.312H102.803ZM115.09 254.301H123.299C126.428 254.301 128.801 254.975 130.418 256.322C132.035 257.67 132.844 259.703 132.844 262.422C132.844 265.129 131.977 267.215 130.242 268.68C128.508 270.133 126.053 270.859 122.877 270.859H120.539V280H115.09V254.301ZM120.539 258.766V266.395H122.332C125.672 266.395 127.342 265.105 127.342 262.527C127.342 261.238 126.99 260.289 126.287 259.68C125.596 259.07 124.506 258.766 123.018 258.766H120.539ZM143.145 280H137.695V254.301H143.145V280ZM164.658 252.424H168.546V257.284C168.546 265.528 165.666 273.268 159.366 276.364L156.486 272.512C162.102 269.884 164.658 263.476 164.658 257.284V252.424ZM165.63 252.424H169.446V257.284C169.446 263.26 171.822 269.344 177.15 271.936L174.27 275.752C168.258 272.692 165.63 265.276 165.63 257.284V252.424ZM178.482 249.868H183.306V283.204H178.482V249.868ZM182.226 262.684H188.13V266.68H182.226V262.684ZM197.056 261.028H201.844V267.148H197.056V261.028ZM208.792 261.028H213.544V267.148H208.792V261.028ZM190.288 265.672H220.42V269.452H190.288V265.672ZM205.3 271.144C212.5 271.144 216.856 273.304 216.856 277.156C216.856 281.044 212.5 283.204 205.3 283.204C198.064 283.204 193.708 281.044 193.708 277.156C193.708 273.304 198.064 271.144 205.3 271.144ZM205.3 274.744C200.836 274.744 198.568 275.5 198.568 277.156C198.568 278.848 200.836 279.604 205.3 279.604C209.764 279.604 212.032 278.848 212.032 277.156C212.032 275.5 209.764 274.744 205.3 274.744ZM205.372 250.336C212.716 250.336 217.432 252.784 217.432 256.78C217.432 260.74 212.716 263.116 205.372 263.116C197.992 263.116 193.312 260.74 193.312 256.78C193.312 252.784 197.992 250.336 205.372 250.336ZM205.372 254.008C200.8 254.008 198.244 254.908 198.244 256.78C198.244 258.616 200.8 259.516 205.372 259.516C209.944 259.516 212.5 258.616 212.5 256.78C212.5 254.908 209.944 254.008 205.372 254.008ZM247.381 249.868H251.953V283.204H247.381V249.868ZM243.025 262.72H248.569V266.536H243.025V262.72ZM239.929 250.444H244.393V281.62H239.929V250.444ZM224.701 253.54H229.489V272.8H224.701V253.54ZM224.701 271H227.005C230.209 271 233.953 270.82 238.093 270.028L238.561 274.132C234.205 274.924 230.389 275.104 227.005 275.104H224.701V271ZM271.282 254.332H281.146V258.184H271.282V254.332ZM271.282 261.568H281.146V265.42H271.282V261.568ZM261.706 271.108H284.422V283.204H279.634V274.888H261.706V271.108ZM279.634 249.868H284.422V269.596H279.634V249.868ZM265.738 251.596C270.706 251.596 274.522 255.052 274.522 259.84C274.522 264.664 270.706 268.12 265.738 268.12C260.734 268.12 256.918 264.664 256.918 259.84C256.918 255.052 260.734 251.596 265.738 251.596ZM265.738 255.664C263.29 255.664 261.49 257.212 261.49 259.84C261.49 262.504 263.29 264.052 265.738 264.052C268.15 264.052 269.986 262.504 269.986 259.84C269.986 257.212 268.15 255.664 265.738 255.664Z" fill="#676767"/>
<rect x="87.5" y="72.5" width="1299" height="101" rx="19.5" fill="white" stroke="#B4B4B4"/>
<g filter="url(#filter0_d_1050_390)">
<path fill-rule="evenodd" clip-rule="evenodd" d="M1331.22 127.026C1331.22 131.002 1328 134.224 1324.03 134.224H1306.03C1302.06 134.224 1298.83 131.002 1298.83 127.026V109.031C1298.83 105.056 1302.06 101.833 1306.03 101.833H1324.03C1328 101.833 1331.22 105.056 1331.22 109.031V127.026Z" stroke="#7A7A7A" stroke-width="1.5" stroke-linecap="round" stroke-linejoin="round"/>
<path d="M1312.97 141.166H1330.97C1334.94 141.166 1338.17 137.944 1338.17 133.968V115.973" stroke="#7A7A7A" stroke-width="1.5" stroke-linecap="round" stroke-linejoin="round"/>
</g>
<rect x="87" y="324" width="1300" height="72" fill="#D9D9D9"/>
<line x1="86.9984" y1="479.02" x2="1387" y2="477" stroke="#D9D9D9" stroke-width="2"/>
<path d="M87 562.02L1387 560" stroke="#D9D9D9" stroke-width="2"/>
<line x1="96.9984" y1="643.02" x2="1397" y2="641" stroke="#D9D9D9" stroke-width="2"/>
<path d="M298.458 373H292.913L291.137 367.223H282.305L280.545 373H275L283.566 348.629H289.858L298.458 373ZM289.925 362.906L287.169 354.024C286.959 353.294 286.815 352.752 286.737 352.397C286.372 353.803 285.326 357.306 283.6 362.906H289.925ZM301.529 348.729H309.282C312.237 348.729 314.479 349.365 316.006 350.638C317.533 351.91 318.297 353.831 318.297 356.398C318.297 358.955 317.478 360.925 315.84 362.309C314.202 363.681 311.883 364.367 308.884 364.367H306.676V373H301.529V348.729ZM306.676 352.945V360.15H308.369C311.523 360.15 313.101 358.933 313.101 356.498C313.101 355.281 312.769 354.384 312.104 353.809C311.451 353.233 310.422 352.945 309.017 352.945H306.676ZM328.025 373H322.879V348.729H328.025V373Z" fill="#676767"/>
<path d="M752.432 346.956H756.104V351.546C756.104 359.332 753.384 366.642 747.434 369.566L744.714 365.928C750.018 363.446 752.432 357.394 752.432 351.546V346.956ZM753.35 346.956H756.954V351.546C756.954 357.19 759.198 362.936 764.23 365.384L761.51 368.988C755.832 366.098 753.35 359.094 753.35 351.546V346.956ZM765.488 344.542H770.044V376.026H765.488V344.542ZM769.024 356.646H774.6V360.42H769.024V356.646ZM783.029 355.082H787.551V360.862H783.029V355.082ZM794.113 355.082H798.601V360.862H794.113V355.082ZM776.637 359.468H805.095V363.038H776.637V359.468ZM790.815 364.636C797.615 364.636 801.729 366.676 801.729 370.314C801.729 373.986 797.615 376.026 790.815 376.026C783.981 376.026 779.867 373.986 779.867 370.314C779.867 366.676 783.981 364.636 790.815 364.636ZM790.815 368.036C786.599 368.036 784.457 368.75 784.457 370.314C784.457 371.912 786.599 372.626 790.815 372.626C795.031 372.626 797.173 371.912 797.173 370.314C797.173 368.75 795.031 368.036 790.815 368.036ZM790.883 344.984C797.819 344.984 802.273 347.296 802.273 351.07C802.273 354.81 797.819 357.054 790.883 357.054C783.913 357.054 779.493 354.81 779.493 351.07C779.493 347.296 783.913 344.984 790.883 344.984ZM790.883 348.452C786.565 348.452 784.151 349.302 784.151 351.07C784.151 352.804 786.565 353.654 790.883 353.654C795.201 353.654 797.615 352.804 797.615 351.07C797.615 349.302 795.201 348.452 790.883 348.452ZM831.409 348.758H836.883V352.464H831.409V348.758ZM831.409 355.388H836.883V359.094H831.409V355.388ZM828.179 344.542H832.701V363.514H828.179V344.542ZM809.037 358.55H811.689C817.877 358.55 821.685 358.414 826.037 357.598L826.445 361.202C822.025 362.052 818.047 362.222 811.689 362.222H809.037V358.55ZM809.003 346.412H823.385V355.864H813.525V360.76H809.037V352.498H818.931V349.982H809.003V346.412ZM822.365 364.058C828.927 364.058 833.007 366.302 833.007 370.076C833.007 373.85 828.927 376.026 822.365 376.026C815.803 376.026 811.689 373.85 811.689 370.076C811.689 366.302 815.803 364.058 822.365 364.058ZM822.365 367.526C818.285 367.526 816.143 368.342 816.143 370.076C816.143 371.81 818.285 372.626 822.365 372.626C826.445 372.626 828.587 371.81 828.587 370.076C828.587 368.342 826.445 367.526 822.365 367.526Z" fill="#676767"/>
<path d="M1138.43 346.956H1142.1V351.546C1142.1 359.332 1139.38 366.642 1133.43 369.566L1130.71 365.928C1136.02 363.446 1138.43 357.394 1138.43 351.546V346.956ZM1139.35 346.956H1142.95V351.546C1142.95 357.19 1145.2 362.936 1150.23 365.384L1147.51 368.988C1141.83 366.098 1139.35 359.094 1139.35 351.546V346.956ZM1151.49 344.542H1156.04V376.026H1151.49V344.542ZM1155.02 356.646H1160.6V360.42H1155.02V356.646ZM1169.03 355.082H1173.55V360.862H1169.03V355.082ZM1180.11 355.082H1184.6V360.862H1180.11V355.082ZM1162.64 359.468H1191.1V363.038H1162.64V359.468ZM1176.82 364.636C1183.62 364.636 1187.73 366.676 1187.73 370.314C1187.73 373.986 1183.62 376.026 1176.82 376.026C1169.98 376.026 1165.87 373.986 1165.87 370.314C1165.87 366.676 1169.98 364.636 1176.82 364.636ZM1176.82 368.036C1172.6 368.036 1170.46 368.75 1170.46 370.314C1170.46 371.912 1172.6 372.626 1176.82 372.626C1181.03 372.626 1183.17 371.912 1183.17 370.314C1183.17 368.75 1181.03 368.036 1176.82 368.036ZM1176.88 344.984C1183.82 344.984 1188.27 347.296 1188.27 351.07C1188.27 354.81 1183.82 357.054 1176.88 357.054C1169.91 357.054 1165.49 354.81 1165.49 351.07C1165.49 347.296 1169.91 344.984 1176.88 344.984ZM1176.88 348.452C1172.57 348.452 1170.15 349.302 1170.15 351.07C1170.15 352.804 1172.57 353.654 1176.88 353.654C1181.2 353.654 1183.62 352.804 1183.62 351.07C1183.62 349.302 1181.2 348.452 1176.88 348.452ZM1200.2 360.522H1204.69V369.362H1200.2V360.522ZM1211.63 360.522H1216.15V369.362H1211.63V360.522ZM1193.95 368.716H1222.44V372.388H1193.95V368.716ZM1208.16 346.072C1214.93 346.072 1219.92 349.404 1219.92 354.538C1219.92 359.672 1214.93 362.97 1208.16 362.97C1201.36 362.97 1196.4 359.672 1196.4 354.538C1196.4 349.404 1201.36 346.072 1208.16 346.072ZM1208.16 349.608C1203.77 349.608 1200.85 351.41 1200.85 354.538C1200.85 357.632 1203.77 359.468 1208.16 359.468C1212.55 359.468 1215.47 357.632 1215.47 354.538C1215.47 351.41 1212.55 349.608 1208.16 349.608ZM1228.69 345.936H1248.65V349.54H1228.69V345.936ZM1225.23 357.258H1253.72V360.862H1225.23V357.258ZM1245.93 345.936H1250.39V348.452C1250.39 351.172 1250.39 354.096 1249.43 358.176L1244.95 358.108C1245.93 354.028 1245.93 351.138 1245.93 348.452V345.936ZM1228.56 364.16H1250.25V375.686H1228.56V364.16ZM1245.8 367.662H1232.98V372.116H1245.8V367.662Z" fill="#676767"/>
<path d="M196.184 425.416H198.488V426.632C198.488 431.816 192.984 435.624 187.16 436.616L186.136 434.504C191.224 433.768 196.184 430.44 196.184 426.632V425.416ZM196.856 425.416H199.128V426.632C199.128 430.44 204.12 433.768 209.176 434.504L208.184 436.616C202.328 435.624 196.856 431.816 196.856 426.632V425.416ZM196.28 440.456H198.904V451.496H196.28V440.456ZM184.6 439.048H210.744V441.224H184.6V439.048ZM187.032 424.36H208.216V426.504H187.032V424.36ZM214.038 445.544H240.246V447.752H214.038V445.544ZM225.686 438.536H228.31V446.28H225.686V438.536ZM225.622 424.488H227.926V426.728C227.926 432.904 222.006 437.672 216.182 438.888L215.062 436.68C220.15 435.752 225.622 431.496 225.622 426.728V424.488ZM226.102 424.488H228.406V426.728C228.406 431.528 233.91 435.752 238.998 436.68L237.846 438.888C232.022 437.672 226.102 432.904 226.102 426.728V424.488ZM263.82 424.424H266.604C266.604 431.72 261.484 436.936 253.164 439.272L252.076 437.192C259.404 435.112 263.82 430.92 263.82 425.544V424.424ZM253.58 424.424H265.612V426.568H253.58V424.424ZM272.908 422.568H275.564V439.08H272.908V422.568ZM266.635 429.992H273.42V432.2H266.635V429.992ZM256.908 440.296H275.564V451.112H256.908V440.296ZM272.972 442.44H259.532V448.936H272.972V442.44ZM287.273 424.296H289.385V428.168C289.385 432.52 286.921 437.096 282.665 439.048L281.225 436.968C285.001 435.272 287.273 431.464 287.273 428.168V424.296ZM287.689 424.296H289.801V428.168C289.801 431.464 291.945 434.76 295.657 436.264L294.249 438.312C290.057 436.552 287.689 432.488 287.689 428.168V424.296ZM303.049 422.6H305.577V440.072H303.049V422.6ZM298.377 430.088H303.849V432.296H298.377V430.088ZM296.841 423.08H299.369V439.912H296.841V423.08ZM286.185 441.64H305.577V451.496H302.953V443.816H286.185V441.64ZM330.247 422.568H332.903V451.496H330.247V422.568ZM332.263 434.44H337.639V436.68H332.263V434.44ZM310.503 427.176H327.559V429.352H310.503V427.176ZM319.143 431.752C323.239 431.752 326.183 434.504 326.183 438.408C326.183 442.312 323.239 445.064 319.143 445.064C315.079 445.064 312.103 442.312 312.103 438.408C312.103 434.504 315.079 431.752 319.143 431.752ZM319.143 433.96C316.519 433.96 314.631 435.784 314.631 438.408C314.631 441 316.519 442.856 319.143 442.856C321.767 442.856 323.655 441 323.655 438.408C323.655 435.784 321.767 433.96 319.143 433.96ZM317.767 422.92H320.423V428.168H317.767V422.92ZM361.156 422.568H363.812V451.496H361.156V422.568ZM352.676 425.672H355.3C355.3 434.056 351.524 441.384 341.86 446.12L340.452 443.976C348.804 439.944 352.676 433.8 352.676 426.12V425.672ZM341.764 425.672H353.828V427.848H341.764V425.672Z" fill="#676767"/>
<path d="M751.172 449H748.641V432.719C748.641 431.438 748.682 430.156 748.766 428.875C748.547 429.104 748.333 429.307 748.125 429.484C747.927 429.661 746.656 430.703 744.312 432.609L742.938 430.828L748.984 426.156H751.172V449ZM763.781 445.281L764.016 445.641C763.755 446.672 763.365 447.875 762.844 449.25C762.333 450.625 761.802 451.917 761.25 453.125H759.297C759.599 451.969 759.906 450.63 760.219 449.109C760.542 447.651 760.781 446.375 760.938 445.281H763.781ZM774.859 425.828C777.068 425.828 778.786 426.339 780.016 427.359C781.255 428.37 781.875 429.76 781.875 431.531C781.875 432.979 781.469 434.172 780.656 435.109C779.844 436.036 778.682 436.656 777.172 436.969V437.094C778.984 437.312 780.339 437.885 781.234 438.812C782.13 439.74 782.578 440.979 782.578 442.531C782.578 444.719 781.823 446.396 780.312 447.562C778.802 448.729 776.656 449.312 773.875 449.312C771.396 449.312 769.307 448.901 767.609 448.078V445.609C769.641 446.609 771.76 447.109 773.969 447.109C777.917 447.109 779.891 445.562 779.891 442.469C779.891 439.698 777.714 438.312 773.359 438.312H771.109V436.078H773.391C775.172 436.078 776.583 435.688 777.625 434.906C778.667 434.115 779.188 433.021 779.188 431.625C779.188 430.51 778.802 429.635 778.031 429C777.271 428.365 776.234 428.047 774.922 428.047C773.943 428.047 773.005 428.182 772.109 428.453C771.224 428.714 770.208 429.214 769.062 429.953L767.75 428.203C768.698 427.453 769.786 426.87 771.016 426.453C772.245 426.036 773.526 425.828 774.859 425.828ZM799.312 428.547H790.172L789.594 435.406C790.823 435.167 792.016 435.047 793.172 435.047C795.589 435.047 797.479 435.646 798.844 436.844C800.229 438.031 800.922 439.661 800.922 441.734C800.922 444.099 800.167 445.953 798.656 447.297C797.156 448.641 795.099 449.312 792.484 449.312C789.88 449.312 787.901 448.901 786.547 448.078V445.578C787.297 446.057 788.198 446.427 789.25 446.688C790.312 446.948 791.385 447.078 792.469 447.078C794.312 447.078 795.74 446.646 796.75 445.781C797.76 444.906 798.266 443.656 798.266 442.031C798.266 438.844 796.312 437.25 792.406 437.25C791.448 437.25 790.125 437.401 788.438 437.703L787.094 436.844L787.953 426.156H799.312V428.547ZM811.516 425.828C813.672 425.828 815.354 426.38 816.562 427.484C817.771 428.568 818.375 430.042 818.375 431.906C818.375 433.344 817.974 434.771 817.172 436.188C816.37 437.604 814.849 439.401 812.609 441.578L807.609 446.469V446.594H819.359V449H804.328V446.766L810.359 440.719C812.255 438.792 813.479 437.448 814.031 436.688C814.583 435.927 815.005 435.182 815.297 434.453C815.589 433.724 815.734 432.911 815.734 432.016C815.734 430.786 815.359 429.818 814.609 429.109C813.87 428.401 812.849 428.047 811.547 428.047C810.599 428.047 809.698 428.203 808.844 428.516C808 428.828 807.057 429.396 806.016 430.219L804.641 428.453C806.745 426.703 809.036 425.828 811.516 425.828ZM843.814 422.568H846.47V443.944H843.814V422.568ZM837.574 431.496H844.326V433.704H837.574V431.496ZM834.886 424.808H837.67C837.67 432.264 832.422 437.928 824.262 440.648L823.11 438.504C830.182 436.136 834.886 431.592 834.886 425.864V424.808ZM824.55 424.808H836.614V426.984H824.55V424.808ZM828.198 448.68H847.206V450.856H828.198V448.68ZM828.198 441.8H830.854V449.768H828.198V441.8Z" fill="#676767"/>
<path d="M1154.84 428.547H1145.7L1145.12 435.406C1146.35 435.167 1147.55 435.047 1148.7 435.047C1151.12 435.047 1153.01 435.646 1154.38 436.844C1155.76 438.031 1156.45 439.661 1156.45 441.734C1156.45 444.099 1155.7 445.953 1154.19 447.297C1152.69 448.641 1150.63 449.312 1148.02 449.312C1145.41 449.312 1143.43 448.901 1142.08 448.078V445.578C1142.83 446.057 1143.73 446.427 1144.78 446.688C1145.84 446.948 1146.92 447.078 1148 447.078C1149.84 447.078 1151.27 446.646 1152.28 445.781C1153.29 444.906 1153.8 443.656 1153.8 442.031C1153.8 438.844 1151.84 437.25 1147.94 437.25C1146.98 437.25 1145.66 437.401 1143.97 437.703L1142.62 436.844L1143.48 426.156H1154.84V428.547ZM1172.58 441.391H1175.97V443.75H1172.58V449H1170.09V443.75H1158.98V441.484L1169.83 426.031H1172.58V441.391ZM1170.09 441.391V433.812C1170.09 432.219 1170.15 430.531 1170.25 428.75H1170.12C1169.62 429.75 1169.16 430.578 1168.72 431.234L1161.58 441.391H1170.09ZM1182.09 445.281L1182.33 445.641C1182.07 446.672 1181.68 447.875 1181.16 449.25C1180.65 450.625 1180.11 451.917 1179.56 453.125H1177.61C1177.91 451.969 1178.22 450.63 1178.53 449.109C1178.85 447.651 1179.09 446.375 1179.25 445.281H1182.09ZM1186.06 437.469C1186.06 433.552 1186.68 430.63 1187.92 428.703C1189.16 426.766 1191.03 425.797 1193.53 425.797C1196.04 425.797 1197.94 426.802 1199.23 428.812C1200.53 430.812 1201.17 433.76 1201.17 437.656C1201.17 441.542 1200.55 444.458 1199.3 446.406C1198.05 448.344 1196.17 449.312 1193.66 449.312C1191.16 449.312 1189.27 448.318 1187.98 446.328C1186.7 444.328 1186.06 441.375 1186.06 437.469ZM1197.34 430.344C1196.57 428.812 1195.33 428.047 1193.61 428.047C1191.89 428.047 1190.64 428.802 1189.86 430.312C1189.08 431.812 1188.69 434.224 1188.69 437.547C1188.69 440.87 1189.08 443.292 1189.86 444.812C1190.64 446.323 1191.89 447.078 1193.61 447.078C1195.33 447.078 1196.57 446.312 1197.34 444.781C1198.12 443.24 1198.52 440.828 1198.52 437.547C1198.52 434.266 1198.12 431.865 1197.34 430.344ZM1205.16 431.266C1205.16 429.609 1205.77 428.292 1207 427.312C1208.23 426.323 1209.88 425.828 1211.94 425.828C1214 425.828 1215.64 426.318 1216.86 427.297C1218.08 428.266 1218.69 429.599 1218.69 431.297C1218.69 432.443 1218.33 433.479 1217.62 434.406C1216.92 435.323 1215.81 436.156 1214.3 436.906C1216.17 437.802 1217.48 438.734 1218.23 439.703C1219.03 440.661 1219.42 441.786 1219.42 443.078C1219.42 444.974 1218.76 446.49 1217.44 447.625C1216.1 448.75 1214.26 449.312 1211.89 449.312C1209.53 449.312 1207.69 448.781 1206.38 447.719C1205.06 446.646 1204.41 445.13 1204.41 443.172C1204.41 440.557 1206 438.521 1209.19 437.062C1207.77 436.26 1206.74 435.396 1206.11 434.469C1205.47 433.531 1205.16 432.464 1205.16 431.266ZM1214.98 428.875C1214.23 428.25 1213.2 427.938 1211.88 427.938C1210.56 427.938 1209.54 428.25 1208.8 428.875C1208.07 429.5 1207.7 430.312 1207.7 431.312C1207.7 432.302 1208.01 433.151 1208.62 433.859C1209.24 434.536 1210.38 435.219 1212.03 435.906C1213.53 435.271 1214.59 434.599 1215.2 433.891C1215.82 433.172 1216.12 432.307 1216.12 431.297C1216.12 430.286 1215.74 429.479 1214.98 428.875ZM1211.39 438.125C1209.84 438.792 1208.71 439.531 1208.02 440.344C1207.32 441.146 1206.97 442.141 1206.97 443.328C1206.97 444.516 1207.4 445.458 1208.27 446.156C1209.14 446.854 1210.36 447.203 1211.92 447.203C1213.48 447.203 1214.7 446.844 1215.56 446.125C1216.43 445.396 1216.86 444.391 1216.86 443.109C1216.86 442.099 1216.45 441.203 1215.64 440.422C1214.83 439.63 1213.41 438.865 1211.39 438.125ZM1222.69 437.469C1222.69 433.552 1223.31 430.63 1224.55 428.703C1225.79 426.766 1227.66 425.797 1230.16 425.797C1232.67 425.797 1234.57 426.802 1235.86 428.812C1237.15 430.812 1237.8 433.76 1237.8 437.656C1237.8 441.542 1237.17 444.458 1235.92 446.406C1234.67 448.344 1232.79 449.312 1230.28 449.312C1227.78 449.312 1225.89 448.318 1224.61 446.328C1223.33 444.328 1222.69 441.375 1222.69 437.469ZM1233.97 430.344C1233.2 428.812 1231.95 428.047 1230.23 428.047C1228.52 428.047 1227.27 428.802 1226.48 430.312C1225.7 431.812 1225.31 434.224 1225.31 437.547C1225.31 440.87 1225.7 443.292 1226.48 444.812C1227.27 446.323 1228.52 447.078 1230.23 447.078C1231.95 447.078 1233.2 446.312 1233.97 444.781C1234.75 443.24 1235.14 440.828 1235.14 437.547C1235.14 434.266 1234.75 431.865 1233.97 430.344Z" fill="#676767"/>
<path d="M1151.17 531H1148.64V514.719C1148.64 513.438 1148.68 512.156 1148.77 510.875C1148.55 511.104 1148.33 511.307 1148.12 511.484C1147.93 511.661 1146.66 512.703 1144.31 514.609L1142.94 512.828L1148.98 508.156H1151.17V531ZM1159.91 519.469C1159.91 515.552 1160.53 512.63 1161.77 510.703C1163.01 508.766 1164.88 507.797 1167.38 507.797C1169.89 507.797 1171.79 508.802 1173.08 510.812C1174.37 512.812 1175.02 515.76 1175.02 519.656C1175.02 523.542 1174.39 526.458 1173.14 528.406C1171.89 530.344 1170.01 531.312 1167.5 531.312C1165 531.312 1163.11 530.318 1161.83 528.328C1160.55 526.328 1159.91 523.375 1159.91 519.469ZM1171.19 512.344C1170.42 510.812 1169.17 510.047 1167.45 510.047C1165.73 510.047 1164.48 510.802 1163.7 512.312C1162.92 513.812 1162.53 516.224 1162.53 519.547C1162.53 522.87 1162.92 525.292 1163.7 526.812C1164.48 528.323 1165.73 529.078 1167.45 529.078C1169.17 529.078 1170.42 528.312 1171.19 526.781C1171.97 525.24 1172.36 522.828 1172.36 519.547C1172.36 516.266 1171.97 513.865 1171.19 512.344ZM1182.09 527.281L1182.33 527.641C1182.07 528.672 1181.68 529.875 1181.16 531.25C1180.65 532.625 1180.11 533.917 1179.56 535.125H1177.61C1177.91 533.969 1178.22 532.63 1178.53 531.109C1178.85 529.651 1179.09 528.375 1179.25 527.281H1182.09ZM1186.06 519.469C1186.06 515.552 1186.68 512.63 1187.92 510.703C1189.16 508.766 1191.03 507.797 1193.53 507.797C1196.04 507.797 1197.94 508.802 1199.23 510.812C1200.53 512.812 1201.17 515.76 1201.17 519.656C1201.17 523.542 1200.55 526.458 1199.3 528.406C1198.05 530.344 1196.17 531.312 1193.66 531.312C1191.16 531.312 1189.27 530.318 1187.98 528.328C1186.7 526.328 1186.06 523.375 1186.06 519.469ZM1197.34 512.344C1196.57 510.812 1195.33 510.047 1193.61 510.047C1191.89 510.047 1190.64 510.802 1189.86 512.312C1189.08 513.812 1188.69 516.224 1188.69 519.547C1188.69 522.87 1189.08 525.292 1189.86 526.812C1190.64 528.323 1191.89 529.078 1193.61 529.078C1195.33 529.078 1196.57 528.312 1197.34 526.781C1198.12 525.24 1198.52 522.828 1198.52 519.547C1198.52 516.266 1198.12 513.865 1197.34 512.344ZM1211.52 507.828C1213.67 507.828 1215.35 508.38 1216.56 509.484C1217.77 510.568 1218.38 512.042 1218.38 513.906C1218.38 515.344 1217.97 516.771 1217.17 518.188C1216.37 519.604 1214.85 521.401 1212.61 523.578L1207.61 528.469V528.594H1219.36V531H1204.33V528.766L1210.36 522.719C1212.26 520.792 1213.48 519.448 1214.03 518.688C1214.58 517.927 1215.01 517.182 1215.3 516.453C1215.59 515.724 1215.73 514.911 1215.73 514.016C1215.73 512.786 1215.36 511.818 1214.61 511.109C1213.87 510.401 1212.85 510.047 1211.55 510.047C1210.6 510.047 1209.7 510.203 1208.84 510.516C1208 510.828 1207.06 511.396 1206.02 512.219L1204.64 510.453C1206.74 508.703 1209.04 507.828 1211.52 507.828ZM1222.69 519.469C1222.69 515.552 1223.31 512.63 1224.55 510.703C1225.79 508.766 1227.66 507.797 1230.16 507.797C1232.67 507.797 1234.57 508.802 1235.86 510.812C1237.15 512.812 1237.8 515.76 1237.8 519.656C1237.8 523.542 1237.17 526.458 1235.92 528.406C1234.67 530.344 1232.79 531.312 1230.28 531.312C1227.78 531.312 1225.89 530.318 1224.61 528.328C1223.33 526.328 1222.69 523.375 1222.69 519.469ZM1233.97 512.344C1233.2 510.812 1231.95 510.047 1230.23 510.047C1228.52 510.047 1227.27 510.802 1226.48 512.312C1225.7 513.812 1225.31 516.224 1225.31 519.547C1225.31 522.87 1225.7 525.292 1226.48 526.812C1227.27 528.323 1228.52 529.078 1230.23 529.078C1231.95 529.078 1233.2 528.312 1233.97 526.781C1234.75 525.24 1235.14 522.828 1235.14 519.547C1235.14 516.266 1234.75 513.865 1233.97 512.344Z" fill="#676767"/>
<path d="M1150.11 598.766C1152.16 598.766 1153.78 599.385 1154.95 600.625C1156.14 601.854 1156.73 603.536 1156.73 605.672C1156.73 608.047 1156.08 609.917 1154.78 611.281C1153.49 612.635 1151.7 613.312 1149.42 613.312C1147.14 613.312 1145.3 612.427 1143.91 610.656C1142.52 608.885 1141.83 606.411 1141.83 603.234C1141.83 594.297 1145.28 589.828 1152.19 589.828C1153.39 589.828 1154.31 589.927 1154.97 590.125V592.359C1154.19 592.099 1153.27 591.969 1152.22 591.969C1149.75 591.969 1147.88 592.74 1146.59 594.281C1145.31 595.823 1144.61 598.214 1144.48 601.453H1144.67C1145.81 599.661 1147.62 598.766 1150.11 598.766ZM1149.44 600.812C1148.16 600.812 1147.01 601.245 1145.98 602.109C1144.96 602.974 1144.46 603.969 1144.48 605.094C1144.47 606.156 1144.68 607.151 1145.09 608.078C1145.52 609.005 1146.11 609.745 1146.88 610.297C1147.65 610.839 1148.48 611.109 1149.39 611.109C1149.43 611.109 1149.47 611.109 1149.5 611.109C1150.99 611.109 1152.14 610.641 1152.95 609.703C1153.77 608.766 1154.17 607.479 1154.17 605.844C1154.17 604.198 1153.79 602.948 1153.02 602.094C1152.24 601.24 1151.11 600.812 1149.62 600.812C1149.56 600.812 1149.5 600.812 1149.44 600.812ZM1168.42 598.766C1170.47 598.766 1172.09 599.385 1173.27 600.625C1174.45 601.854 1175.05 603.536 1175.05 605.672C1175.05 608.047 1174.4 609.917 1173.09 611.281C1171.8 612.635 1170.02 613.312 1167.73 613.312C1165.45 613.312 1163.61 612.427 1162.22 610.656C1160.83 608.885 1160.14 606.411 1160.14 603.234C1160.14 594.297 1163.59 589.828 1170.5 589.828C1171.7 589.828 1172.62 589.927 1173.28 590.125V592.359C1172.5 592.099 1171.58 591.969 1170.53 591.969C1168.06 591.969 1166.19 592.74 1164.91 594.281C1163.62 595.823 1162.92 598.214 1162.8 601.453H1162.98C1164.12 599.661 1165.93 598.766 1168.42 598.766ZM1167.75 600.812C1166.47 600.812 1165.32 601.245 1164.3 602.109C1163.28 602.974 1162.78 603.969 1162.8 605.094C1162.79 606.156 1162.99 607.151 1163.41 608.078C1163.83 609.005 1164.43 609.745 1165.19 610.297C1165.96 610.839 1166.8 611.109 1167.7 611.109C1167.74 611.109 1167.78 611.109 1167.81 611.109C1169.3 611.109 1170.45 610.641 1171.27 609.703C1172.08 608.766 1172.48 607.479 1172.48 605.844C1172.48 604.198 1172.1 602.948 1171.33 602.094C1170.56 601.24 1169.43 600.812 1167.94 600.812C1167.88 600.812 1167.81 600.812 1167.75 600.812ZM1182.09 609.281L1182.33 609.641C1182.07 610.672 1181.68 611.875 1181.16 613.25C1180.65 614.625 1180.11 615.917 1179.56 617.125H1177.61C1177.91 615.969 1178.22 614.63 1178.53 613.109C1178.85 611.651 1179.09 610.375 1179.25 609.281H1182.09ZM1198.73 605.391H1202.12V607.75H1198.73V613H1196.25V607.75H1185.14V605.484L1195.98 590.031H1198.73V605.391ZM1196.25 605.391V597.812C1196.25 596.219 1196.3 594.531 1196.41 592.75H1196.28C1195.78 593.75 1195.31 594.578 1194.88 595.234L1187.73 605.391H1196.25ZM1217.62 592.547H1208.48L1207.91 599.406C1209.14 599.167 1210.33 599.047 1211.48 599.047C1213.9 599.047 1215.79 599.646 1217.16 600.844C1218.54 602.031 1219.23 603.661 1219.23 605.734C1219.23 608.099 1218.48 609.953 1216.97 611.297C1215.47 612.641 1213.41 613.312 1210.8 613.312C1208.19 613.312 1206.21 612.901 1204.86 612.078V609.578C1205.61 610.057 1206.51 610.427 1207.56 610.688C1208.62 610.948 1209.7 611.078 1210.78 611.078C1212.62 611.078 1214.05 610.646 1215.06 609.781C1216.07 608.906 1216.58 607.656 1216.58 606.031C1216.58 602.844 1214.62 601.25 1210.72 601.25C1209.76 601.25 1208.44 601.401 1206.75 601.703L1205.41 600.844L1206.27 590.156H1217.62V592.547ZM1222.69 601.469C1222.69 597.552 1223.31 594.63 1224.55 592.703C1225.79 590.766 1227.66 589.797 1230.16 589.797C1232.67 589.797 1234.57 590.802 1235.86 592.812C1237.15 594.812 1237.8 597.76 1237.8 601.656C1237.8 605.542 1237.17 608.458 1235.92 610.406C1234.67 612.344 1232.79 613.312 1230.28 613.312C1227.78 613.312 1225.89 612.318 1224.61 610.328C1223.33 608.328 1222.69 605.375 1222.69 601.469ZM1233.97 594.344C1233.2 592.812 1231.95 592.047 1230.23 592.047C1228.52 592.047 1227.27 592.802 1226.48 594.312C1225.7 595.812 1225.31 598.224 1225.31 601.547C1225.31 604.87 1225.7 607.292 1226.48 608.812C1227.27 610.323 1228.52 611.078 1230.23 611.078C1231.95 611.078 1233.2 610.312 1233.97 608.781C1234.75 607.24 1235.14 604.828 1235.14 601.547C1235.14 598.266 1234.75 595.865 1233.97 594.344Z" fill="#676767"/>
<path d="M779.844 510.547H770.703L770.125 517.406C771.354 517.167 772.547 517.047 773.703 517.047C776.12 517.047 778.01 517.646 779.375 518.844C780.76 520.031 781.453 521.661 781.453 523.734C781.453 526.099 780.698 527.953 779.188 529.297C777.688 530.641 775.63 531.312 773.016 531.312C770.411 531.312 768.432 530.901 767.078 530.078V527.578C767.828 528.057 768.729 528.427 769.781 528.688C770.844 528.948 771.917 529.078 773 529.078C774.844 529.078 776.271 528.646 777.281 527.781C778.292 526.906 778.797 525.656 778.797 524.031C778.797 520.844 776.844 519.25 772.938 519.25C771.979 519.25 770.656 519.401 768.969 519.703L767.625 518.844L768.484 508.156H779.844V510.547ZM784.906 519.469C784.906 515.552 785.526 512.63 786.766 510.703C788.005 508.766 789.875 507.797 792.375 507.797C794.885 507.797 796.786 508.802 798.078 510.812C799.37 512.812 800.016 515.76 800.016 519.656C800.016 523.542 799.391 526.458 798.141 528.406C796.891 530.344 795.01 531.312 792.5 531.312C790 531.312 788.109 530.318 786.828 528.328C785.547 526.328 784.906 523.375 784.906 519.469ZM796.188 512.344C795.417 510.812 794.172 510.047 792.453 510.047C790.734 510.047 789.484 510.802 788.703 512.312C787.922 513.812 787.531 516.224 787.531 519.547C787.531 522.87 787.922 525.292 788.703 526.812C789.484 528.323 790.734 529.078 792.453 529.078C794.172 529.078 795.417 528.312 796.188 526.781C796.969 525.24 797.359 522.828 797.359 519.547C797.359 516.266 796.969 513.865 796.188 512.344ZM812.797 531H810.266V514.719C810.266 513.438 810.307 512.156 810.391 510.875C810.172 511.104 809.958 511.307 809.75 511.484C809.552 511.661 808.281 512.703 805.938 514.609L804.562 512.828L810.609 508.156H812.797V531ZM842.658 504.568H845.314V525.944H842.658V504.568ZM836.418 513.496H843.17V515.704H836.418V513.496ZM833.73 506.808H836.514C836.514 514.264 831.266 519.928 823.106 522.648L821.954 520.504C829.026 518.136 833.73 513.592 833.73 507.864V506.808ZM823.394 506.808H835.458V508.984H823.394V506.808ZM827.042 530.68H846.05V532.856H827.042V530.68ZM827.042 523.8H829.698V531.768H827.042V523.8Z" fill="#676767"/>
<path d="M748.734 589.828C750.891 589.828 752.573 590.38 753.781 591.484C754.99 592.568 755.594 594.042 755.594 595.906C755.594 597.344 755.193 598.771 754.391 600.188C753.589 601.604 752.068 603.401 749.828 605.578L744.828 610.469V610.594H756.578V613H741.547V610.766L747.578 604.719C749.474 602.792 750.698 601.448 751.25 600.688C751.802 599.927 752.224 599.182 752.516 598.453C752.807 597.724 752.953 596.911 752.953 596.016C752.953 594.786 752.578 593.818 751.828 593.109C751.089 592.401 750.068 592.047 748.766 592.047C747.818 592.047 746.917 592.203 746.062 592.516C745.219 592.828 744.276 593.396 743.234 594.219L741.859 592.453C743.964 590.703 746.255 589.828 748.734 589.828ZM763.781 609.281L764.016 609.641C763.755 610.672 763.365 611.875 762.844 613.25C762.333 614.625 761.802 615.917 761.25 617.125H759.297C759.599 615.969 759.906 614.63 760.219 613.109C760.542 611.651 760.781 610.375 760.938 609.281H763.781ZM774.891 589.828C777.047 589.828 778.729 590.38 779.938 591.484C781.146 592.568 781.75 594.042 781.75 595.906C781.75 597.344 781.349 598.771 780.547 600.188C779.745 601.604 778.224 603.401 775.984 605.578L770.984 610.469V610.594H782.734V613H767.703V610.766L773.734 604.719C775.63 602.792 776.854 601.448 777.406 600.688C777.958 599.927 778.38 599.182 778.672 598.453C778.964 597.724 779.109 596.911 779.109 596.016C779.109 594.786 778.734 593.818 777.984 593.109C777.245 592.401 776.224 592.047 774.922 592.047C773.974 592.047 773.073 592.203 772.219 592.516C771.375 592.828 770.432 593.396 769.391 594.219L768.016 592.453C770.12 590.703 772.411 589.828 774.891 589.828ZM795.641 613H793.109V596.719C793.109 595.438 793.151 594.156 793.234 592.875C793.016 593.104 792.802 593.307 792.594 593.484C792.396 593.661 791.125 594.703 788.781 596.609L787.406 594.828L793.453 590.156H795.641V613ZM817.625 592.547H808.484L807.906 599.406C809.135 599.167 810.328 599.047 811.484 599.047C813.901 599.047 815.792 599.646 817.156 600.844C818.542 602.031 819.234 603.661 819.234 605.734C819.234 608.099 818.479 609.953 816.969 611.297C815.469 612.641 813.411 613.312 810.797 613.312C808.193 613.312 806.214 612.901 804.859 612.078V609.578C805.609 610.057 806.51 610.427 807.562 610.688C808.625 610.948 809.698 611.078 810.781 611.078C812.625 611.078 814.052 610.646 815.062 609.781C816.073 608.906 816.578 607.656 816.578 606.031C816.578 602.844 814.625 601.25 810.719 601.25C809.76 601.25 808.438 601.401 806.75 601.703L805.406 600.844L806.266 590.156H817.625V592.547ZM843.814 586.568H846.47V607.944H843.814V586.568ZM837.574 595.496H844.326V597.704H837.574V595.496ZM834.886 588.808H837.67C837.67 596.264 832.422 601.928 824.262 604.648L823.11 602.504C830.182 600.136 834.886 595.592 834.886 589.864V588.808ZM824.55 588.808H836.614V590.984H824.55V588.808ZM828.198 612.68H847.206V614.856H828.198V612.68ZM828.198 605.8H830.854V613.768H828.198V605.8Z" fill="#676767"/>
<path d="M195.8 512.6H202.232V514.744H195.8V512.6ZM195.576 519.864H202.168V522.008H195.576V519.864ZM206.616 504.568H209.176V533.496H206.616V504.568ZM200.824 505.304H203.32V532.024H200.824V505.304ZM194.36 508.216H196.92C196.92 515.8 193.88 522.616 186.104 527.256L184.568 525.368C191.32 521.272 194.36 515.512 194.36 508.696V508.216ZM185.848 508.216H195.416V510.392H185.848V508.216ZM221.462 508.024H223.638V509.72C223.638 514.808 220.31 518.936 215.478 520.536L214.166 518.456C218.454 517.08 221.462 513.656 221.462 509.72V508.024ZM221.942 508.024H224.118V509.72C224.118 513.4 226.998 516.664 231.222 517.976L229.974 520.056C225.174 518.52 221.942 514.552 221.942 509.72V508.024ZM215.03 507.224H230.517V509.432H215.03V507.224ZM221.462 519.32H224.118V526.04H221.462V519.32ZM235.478 516.568H240.822V518.808H235.478V516.568ZM233.59 504.568H236.246V533.496H233.59V504.568ZM214.038 527.448L213.686 525.24C218.774 525.24 225.814 525.24 231.766 524.376L231.99 526.36C225.814 527.448 219.03 527.48 214.038 527.448ZM272.78 504.536H275.436V533.528H272.78V504.536ZM253.42 507H256.044V514.648H264.396V507H267.052V526.552H253.42V507ZM256.044 516.76V524.376H264.396V516.76H256.044ZM282.729 506.168H296.201V518.008H282.729V506.168ZM293.641 508.28H285.289V515.864H293.641V508.28ZM302.249 504.568H304.905V519.448H302.249V504.568ZM286.185 520.888H304.905V527.896H288.841V531.96H286.249V525.912H302.281V523H286.185V520.888ZM286.249 531.064H305.897V533.176H286.249V531.064ZM324.295 512.728H332.615V514.904H324.295V512.728ZM331.783 504.6H334.439V526.008H331.783V504.6ZM315.847 530.68H335.143V532.856H315.847V530.68ZM315.847 523.928H318.503V531.8H315.847V523.928ZM312.071 506.488H314.695V511.608H322.535V506.488H325.127V521.08H312.071V506.488ZM314.695 513.688V518.904H322.535V513.688H314.695ZM341.38 508.792H364.868V510.968H341.38V508.792ZM340.1 527.928H366.308V530.136H340.1V527.928ZM351.844 523.352H354.468V528.792H351.844V523.352ZM353.124 512.92C358.98 512.92 362.596 514.936 362.596 518.424C362.596 521.912 358.98 523.928 353.124 523.928C347.3 523.928 343.684 521.912 343.684 518.424C343.684 514.936 347.3 512.92 353.124 512.92ZM353.124 515C348.932 515 346.34 516.28 346.34 518.424C346.34 520.568 348.932 521.816 353.124 521.816C357.348 521.816 359.908 520.568 359.908 518.424C359.908 516.28 357.348 515 353.124 515ZM351.844 505.048H354.468V510.136H351.844V505.048ZM389.882 506.424H392.666C392.666 513.72 387.546 518.936 379.226 521.272L378.138 519.192C385.466 517.112 389.882 512.92 389.882 507.544V506.424ZM379.642 506.424H391.674V508.568H379.642V506.424ZM398.97 504.568H401.626V521.08H398.97V504.568ZM392.698 511.992H399.482V514.2H392.698V511.992ZM382.97 522.296H401.626V533.112H382.97V522.296ZM399.034 524.44H385.594V530.936H399.034V524.44ZM407.256 518.328H433.4V520.472H407.256V518.328ZM420.312 522.968C426.488 522.968 430.232 524.888 430.232 528.216C430.232 531.544 426.488 533.432 420.312 533.432C414.135 533.432 410.391 531.544 410.391 528.216C410.391 524.888 414.135 522.968 420.312 522.968ZM420.312 525.08C415.8 525.08 413.08 526.2 413.08 528.216C413.08 530.2 415.8 531.352 420.312 531.352C424.856 531.352 427.544 530.2 427.544 528.216C427.544 526.2 424.856 525.08 420.312 525.08ZM418.616 507.192H420.984V508.056C420.984 512.696 415.672 515.864 409.688 516.568L408.728 514.488C413.911 513.912 418.616 511.32 418.616 508.056V507.192ZM419.736 507.192H422.072V508.056C422.072 511.32 426.776 513.912 431.96 514.488L431 516.568C425.016 515.864 419.736 512.696 419.736 508.056V507.192ZM409.656 506.04H431.064V508.184H409.656V506.04Z" fill="#676767"/>
<path d="M192.248 590.696H194.392V595.4C194.392 601.512 190.712 607.656 186.104 609.928L184.568 607.816C188.76 605.832 192.248 600.392 192.248 595.4V590.696ZM192.76 590.696H194.904V595.4C194.904 600.296 198.392 605.288 202.648 607.112L201.144 609.224C196.472 607.048 192.76 601.416 192.76 595.4V590.696ZM185.528 589.512H201.688V591.752H185.528V589.512ZM205.592 586.568H208.248V615.496H205.592V586.568ZM227.254 604.712C233.142 604.712 236.758 606.696 236.758 610.088C236.758 613.48 233.142 615.464 227.254 615.464C221.366 615.464 217.75 613.48 217.75 610.088C217.75 606.696 221.366 604.712 227.254 604.712ZM227.254 606.856C222.966 606.856 220.342 608.04 220.342 610.088C220.342 612.168 222.966 613.352 227.254 613.352C231.542 613.352 234.166 612.168 234.166 610.088C234.166 608.04 231.542 606.856 227.254 606.856ZM233.814 586.568H236.47V603.944H233.814V586.568ZM235.734 593.832H240.758V596.072H235.734V593.832ZM215.222 588.392H217.846V592.712H226.006V588.392H228.597V601.736H215.222V588.392ZM217.846 594.824V599.592H226.006V594.824H217.846ZM243.475 609.544H269.683V611.752H243.475V609.544ZM255.123 602.536H257.747V610.28H255.123V602.536ZM255.059 588.488H257.363V590.728C257.363 596.904 251.443 601.672 245.619 602.888L244.499 600.68C249.587 599.752 255.059 595.496 255.059 590.728V588.488ZM255.539 588.488H257.843V590.728C257.843 595.528 263.347 599.752 268.435 600.68L267.283 602.888C261.459 601.672 255.539 596.904 255.539 590.728V588.488ZM272.913 600.648H299.057V602.792H272.913V600.648ZM275.793 606.248H295.857V615.656H293.201V608.424H275.793V606.248ZM276.209 595.304H296.049V597.448H276.209V595.304ZM276.209 587.656H295.793V589.832H278.865V596.392H276.209V587.656ZM313.742 596.904H319.278V599.112H313.742V596.904ZM308.334 589.288H310.414V594.792C310.414 600.84 307.886 606.696 303.662 609.288L301.998 607.272C305.966 604.936 308.334 599.752 308.334 594.792V589.288ZM308.846 589.288H310.894V594.696C310.894 599.336 313.07 604.264 316.878 606.568L315.342 608.648C311.182 606.088 308.846 600.328 308.846 594.696V589.288ZM324.366 586.568H326.926V615.496H324.366V586.568ZM318.51 587.176H321.006V614.056H318.51V587.176ZM361.124 586.6H363.812V607.784H361.124V586.6ZM345.22 612.68H364.676V614.856H345.22V612.68ZM345.22 605.832H347.844V613.704H345.22V605.832ZM347.62 588.168H349.828V591.112C349.828 596.744 346.628 601.672 341.764 603.656L340.388 601.512C344.74 599.816 347.62 595.592 347.62 591.112V588.168ZM348.1 588.168H350.276V591.112C350.276 595.464 353.188 599.4 357.508 600.968L356.1 603.112C351.3 601.256 348.1 596.616 348.1 591.112V588.168ZM372.29 589.448H390.914V591.656H372.29V589.448ZM369.538 609.256H395.682V611.464H369.538V609.256ZM379.682 598.92H382.338V610.344H379.682V598.92ZM389.922 589.448H392.546V592.328C392.546 595.912 392.546 599.88 391.49 605.736L388.834 605.384C389.922 599.848 389.922 595.784 389.922 592.328V589.448Z" fill="#676767"/>
<path d="M146.972 124.112C146.972 126.2 146.804 128.06 146.468 129.692C146.156 131.324 145.652 132.716 144.956 133.868C144.284 134.996 143.384 135.86 142.256 136.46C141.152 137.06 139.82 137.36 138.26 137.36C136.292 137.36 134.672 136.832 133.4 135.776C132.128 134.72 131.18 133.208 130.556 131.24C129.932 129.248 129.62 126.872 129.62 124.112C129.62 121.328 129.896 118.952 130.448 116.984C131.024 115.016 131.948 113.516 133.22 112.484C134.492 111.428 136.172 110.9 138.26 110.9C140.228 110.9 141.848 111.428 143.12 112.484C144.416 113.516 145.376 115.016 146 116.984C146.648 118.952 146.972 121.328 146.972 124.112ZM133.436 124.112C133.436 126.344 133.592 128.204 133.904 129.692C134.216 131.18 134.72 132.296 135.416 133.04C136.136 133.784 137.084 134.156 138.26 134.156C139.436 134.156 140.372 133.796 141.068 133.076C141.788 132.332 142.304 131.216 142.616 129.728C142.952 128.216 143.12 126.344 143.12 124.112C143.12 121.88 142.952 120.032 142.616 118.568C142.304 117.08 141.788 115.964 141.068 115.22C140.372 114.476 139.436 114.104 138.26 114.104C137.084 114.104 136.136 114.476 135.416 115.22C134.72 115.964 134.216 117.08 133.904 118.568C133.592 120.032 133.436 121.88 133.436 124.112ZM156.018 127.1L149.43 117.596H153.786L158.394 124.58L163.002 117.596H167.322L160.734 127.1L167.646 137H163.326L158.394 129.584L153.426 137H149.106L156.018 127.1ZM180.604 120.512H175.816V137H172V120.512H168.724V118.712L172 117.524V116.3C172 114.644 172.252 113.324 172.756 112.34C173.284 111.332 174.028 110.6 174.988 110.144C175.948 109.688 177.112 109.46 178.48 109.46C179.32 109.46 180.088 109.532 180.784 109.676C181.48 109.82 182.068 109.976 182.548 110.144L181.576 113.06C181.192 112.94 180.748 112.832 180.244 112.736C179.74 112.616 179.212 112.556 178.66 112.556C177.7 112.556 176.98 112.868 176.5 113.492C176.044 114.116 175.816 115.064 175.816 116.336V117.596H180.604V120.512ZM199.952 137H182.672V134.048L189.296 127.316C190.592 125.996 191.672 124.856 192.536 123.896C193.4 122.912 194.048 121.976 194.48 121.088C194.912 120.176 195.128 119.192 195.128 118.136C195.128 116.816 194.744 115.832 193.976 115.184C193.208 114.512 192.212 114.176 190.988 114.176C189.812 114.176 188.756 114.404 187.82 114.86C186.884 115.292 185.912 115.904 184.904 116.696L182.852 114.14C183.548 113.54 184.292 113 185.084 112.52C185.9 112.04 186.8 111.656 187.784 111.368C188.792 111.08 189.896 110.936 191.096 110.936C192.728 110.936 194.132 111.224 195.308 111.8C196.484 112.352 197.384 113.144 198.008 114.176C198.656 115.208 198.98 116.42 198.98 117.812C198.98 118.844 198.824 119.816 198.512 120.728C198.2 121.616 197.744 122.492 197.144 123.356C196.568 124.22 195.86 125.096 195.02 125.984C194.18 126.872 193.256 127.808 192.248 128.792L187.46 133.436V133.616H199.952V137ZM214.073 120.512H209.285V137H205.469V120.512H202.193V118.712L205.469 117.524V116.3C205.469 114.644 205.721 113.324 206.225 112.34C206.753 111.332 207.497 110.6 208.457 110.144C209.417 109.688 210.581 109.46 211.949 109.46C212.789 109.46 213.557 109.532 214.253 109.676C214.949 109.82 215.537 109.976 216.017 110.144L215.045 113.06C214.661 112.94 214.217 112.832 213.713 112.736C213.209 112.616 212.681 112.556 212.129 112.556C211.169 112.556 210.449 112.868 209.969 113.492C209.513 114.116 209.285 115.064 209.285 116.336V117.596H214.073V120.512ZM233.42 137H216.14V134.048L222.764 127.316C224.06 125.996 225.14 124.856 226.004 123.896C226.868 122.912 227.516 121.976 227.948 121.088C228.38 120.176 228.596 119.192 228.596 118.136C228.596 116.816 228.212 115.832 227.444 115.184C226.676 114.512 225.68 114.176 224.456 114.176C223.28 114.176 222.224 114.404 221.288 114.86C220.352 115.292 219.38 115.904 218.372 116.696L216.32 114.14C217.016 113.54 217.76 113 218.552 112.52C219.368 112.04 220.268 111.656 221.252 111.368C222.26 111.08 223.364 110.936 224.564 110.936C226.196 110.936 227.6 111.224 228.776 111.8C229.952 112.352 230.852 113.144 231.476 114.176C232.124 115.208 232.448 116.42 232.448 117.812C232.448 118.844 232.292 119.816 231.98 120.728C231.668 121.616 231.212 122.492 230.612 123.356C230.036 124.22 229.328 125.096 228.488 125.984C227.648 126.872 226.724 127.808 225.716 128.792L220.928 133.436V133.616H233.42V137ZM253.014 117.236C253.014 118.388 252.786 119.396 252.33 120.26C251.898 121.1 251.274 121.784 250.458 122.312C249.642 122.84 248.706 123.224 247.65 123.464V123.608C249.714 123.848 251.25 124.496 252.258 125.552C253.29 126.584 253.806 127.952 253.806 129.656C253.806 131.144 253.446 132.476 252.726 133.652C252.03 134.804 250.938 135.716 249.45 136.388C247.986 137.036 246.102 137.36 243.798 137.36C242.43 137.36 241.158 137.252 239.982 137.036C238.806 136.82 237.69 136.46 236.634 135.956V132.5C237.714 133.052 238.866 133.472 240.09 133.76C241.338 134.048 242.526 134.192 243.654 134.192C245.838 134.192 247.41 133.784 248.37 132.968C249.33 132.128 249.81 130.964 249.81 129.476C249.81 128.516 249.558 127.736 249.054 127.136C248.55 126.512 247.782 126.056 246.75 125.768C245.718 125.456 244.434 125.3 242.898 125.3H240.558V122.168H242.934C244.398 122.168 245.586 121.988 246.498 121.628C247.41 121.244 248.082 120.716 248.514 120.044C248.946 119.372 249.162 118.604 249.162 117.74C249.162 116.588 248.778 115.7 248.01 115.076C247.266 114.428 246.186 114.104 244.77 114.104C243.906 114.104 243.102 114.2 242.358 114.392C241.638 114.584 240.978 114.836 240.378 115.148C239.778 115.46 239.19 115.808 238.614 116.192L236.742 113.564C237.39 113.084 238.11 112.64 238.902 112.232C239.718 111.824 240.618 111.512 241.602 111.296C242.61 111.056 243.702 110.936 244.878 110.936C247.542 110.936 249.558 111.524 250.926 112.7C252.318 113.852 253.014 115.364 253.014 117.236ZM275.596 131.312H272.032V137H268.324V131.312H256.408V128.288L268.252 111.188H272.032V128.072H275.596V131.312ZM268.324 121.088C268.324 120.512 268.324 119.96 268.324 119.432C268.348 118.904 268.372 118.4 268.396 117.92C268.42 117.416 268.432 116.96 268.432 116.552C268.456 116.12 268.48 115.736 268.504 115.4H268.36C268.168 115.88 267.928 116.372 267.64 116.876C267.376 117.38 267.1 117.824 266.812 118.208L260.008 128.072H268.324V121.088ZM295.225 137H277.945V134.048L284.569 127.316C285.865 125.996 286.945 124.856 287.809 123.896C288.673 122.912 289.321 121.976 289.753 121.088C290.185 120.176 290.401 119.192 290.401 118.136C290.401 116.816 290.017 115.832 289.249 115.184C288.481 114.512 287.485 114.176 286.261 114.176C285.085 114.176 284.029 114.404 283.093 114.86C282.157 115.292 281.185 115.904 280.177 116.696L278.125 114.14C278.821 113.54 279.565 113 280.357 112.52C281.173 112.04 282.073 111.656 283.057 111.368C284.065 111.08 285.169 110.936 286.369 110.936C288.001 110.936 289.405 111.224 290.581 111.8C291.757 112.352 292.657 113.144 293.281 114.176C293.929 115.208 294.253 116.42 294.253 117.812C294.253 118.844 294.097 119.816 293.785 120.728C293.473 121.616 293.017 122.492 292.417 123.356C291.841 124.22 291.133 125.096 290.293 125.984C289.453 126.872 288.529 127.808 287.521 128.792L282.733 133.436V133.616H295.225V137ZM314.819 117.236C314.819 118.388 314.591 119.396 314.135 120.26C313.703 121.1 313.079 121.784 312.263 122.312C311.447 122.84 310.511 123.224 309.455 123.464V123.608C311.519 123.848 313.055 124.496 314.063 125.552C315.095 126.584 315.611 127.952 315.611 129.656C315.611 131.144 315.251 132.476 314.531 133.652C313.835 134.804 312.743 135.716 311.255 136.388C309.791 137.036 307.907 137.36 305.603 137.36C304.235 137.36 302.963 137.252 301.787 137.036C300.611 136.82 299.495 136.46 298.439 135.956V132.5C299.519 133.052 300.671 133.472 301.895 133.76C303.143 134.048 304.331 134.192 305.459 134.192C307.643 134.192 309.215 133.784 310.175 132.968C311.135 132.128 311.615 130.964 311.615 129.476C311.615 128.516 311.363 127.736 310.859 127.136C310.355 126.512 309.587 126.056 308.555 125.768C307.523 125.456 306.239 125.3 304.703 125.3H302.363V122.168H304.739C306.203 122.168 307.391 121.988 308.303 121.628C309.215 121.244 309.887 120.716 310.319 120.044C310.751 119.372 310.967 118.604 310.967 117.74C310.967 116.588 310.583 115.7 309.815 115.076C309.071 114.428 307.991 114.104 306.575 114.104C305.711 114.104 304.907 114.2 304.163 114.392C303.443 114.584 302.783 114.836 302.183 115.148C301.583 115.46 300.995 115.808 300.419 116.192L298.547 113.564C299.195 113.084 299.915 112.64 300.707 112.232C301.523 111.824 302.423 111.512 303.407 111.296C304.415 111.056 305.507 110.936 306.683 110.936C309.347 110.936 311.363 111.524 312.731 112.7C314.123 113.852 314.819 115.364 314.819 117.236ZM327.644 121.052C329.348 121.052 330.836 121.352 332.108 121.952C333.38 122.552 334.364 123.416 335.06 124.544C335.78 125.672 336.14 127.052 336.14 128.684C336.14 130.484 335.756 132.032 334.988 133.328C334.22 134.624 333.104 135.62 331.64 136.316C330.2 137.012 328.436 137.36 326.348 137.36C325.028 137.36 323.78 137.24 322.604 137C321.428 136.76 320.432 136.412 319.616 135.956V132.464C320.48 132.968 321.524 133.376 322.748 133.688C323.996 134 325.184 134.156 326.312 134.156C327.536 134.156 328.58 133.976 329.444 133.616C330.332 133.232 331.016 132.668 331.496 131.924C332 131.156 332.252 130.196 332.252 129.044C332.252 127.484 331.76 126.296 330.776 125.48C329.816 124.64 328.292 124.22 326.204 124.22C325.532 124.22 324.776 124.28 323.936 124.4C323.12 124.52 322.46 124.64 321.956 124.76L320.192 123.716L321.164 111.296H334.376V114.68H324.476L323.9 121.412C324.308 121.34 324.824 121.268 325.448 121.196C326.072 121.1 326.804 121.052 327.644 121.052ZM344.898 116.228C344.898 117.02 344.874 117.776 344.826 118.496C344.802 119.192 344.766 119.744 344.718 120.152H344.898C345.45 119.336 346.194 118.652 347.13 118.1C348.066 117.548 349.278 117.272 350.766 117.272C353.094 117.272 354.966 118.112 356.382 119.792C357.822 121.472 358.542 123.968 358.542 127.28C358.542 129.512 358.218 131.372 357.57 132.86C356.922 134.348 356.01 135.476 354.834 136.244C353.658 136.988 352.29 137.36 350.73 137.36C349.218 137.36 348.006 137.096 347.094 136.568C346.182 136.016 345.45 135.368 344.898 134.624H344.61L343.89 137H341.082V109.64H344.898V116.228ZM349.866 120.368C348.618 120.368 347.634 120.608 346.914 121.088C346.194 121.568 345.678 122.3 345.366 123.284C345.054 124.268 344.898 125.516 344.898 127.028V127.316C344.898 129.548 345.258 131.264 345.978 132.464C346.698 133.64 348.018 134.228 349.938 134.228C351.474 134.228 352.638 133.628 353.43 132.428C354.222 131.228 354.618 129.5 354.618 127.244C354.618 124.964 354.222 123.248 353.43 122.096C352.638 120.944 351.45 120.368 349.866 120.368ZM371.038 117.236C372.742 117.236 374.206 117.596 375.43 118.316C376.654 119.012 377.59 120.02 378.238 121.34C378.91 122.66 379.246 124.22 379.246 126.02V128.108H366.214C366.262 130.1 366.778 131.624 367.762 132.68C368.77 133.736 370.174 134.264 371.974 134.264C373.222 134.264 374.326 134.156 375.286 133.94C376.27 133.7 377.278 133.352 378.31 132.896V136.064C377.35 136.496 376.366 136.82 375.358 137.036C374.374 137.252 373.198 137.36 371.83 137.36C369.958 137.36 368.302 136.988 366.862 136.244C365.422 135.5 364.294 134.396 363.478 132.932C362.686 131.444 362.29 129.62 362.29 127.46C362.29 125.276 362.65 123.428 363.37 121.916C364.114 120.404 365.134 119.252 366.43 118.46C367.75 117.644 369.286 117.236 371.038 117.236ZM371.038 120.188C369.67 120.188 368.566 120.632 367.726 121.52C366.91 122.408 366.43 123.668 366.286 125.3H375.43C375.43 124.292 375.274 123.404 374.962 122.636C374.65 121.868 374.17 121.268 373.522 120.836C372.874 120.404 372.046 120.188 371.038 120.188ZM391.532 117.236C393.98 117.236 395.804 117.776 397.004 118.856C398.204 119.912 398.804 121.58 398.804 123.86V137H396.104L395.348 134.3H395.204C394.652 134.996 394.076 135.572 393.476 136.028C392.9 136.484 392.228 136.82 391.46 137.036C390.716 137.252 389.804 137.36 388.724 137.36C387.572 137.36 386.528 137.156 385.592 136.748C384.68 136.316 383.96 135.668 383.432 134.804C382.904 133.916 382.64 132.812 382.64 131.492C382.64 129.524 383.384 128.024 384.872 126.992C386.384 125.96 388.676 125.396 391.748 125.3L395.06 125.192V124.112C395.06 122.672 394.736 121.664 394.088 121.088C393.44 120.512 392.528 120.224 391.352 120.224C390.344 120.224 389.384 120.368 388.472 120.656C387.56 120.944 386.696 121.292 385.88 121.7L384.656 118.928C385.568 118.448 386.612 118.052 387.788 117.74C388.988 117.404 390.236 117.236 391.532 117.236ZM392.432 127.748C390.224 127.844 388.688 128.216 387.824 128.864C386.984 129.488 386.564 130.376 386.564 131.528C386.564 132.536 386.864 133.268 387.464 133.724C388.088 134.18 388.868 134.408 389.804 134.408C391.316 134.408 392.564 133.988 393.548 133.148C394.532 132.308 395.024 131.048 395.024 129.368V127.676L392.432 127.748ZM419.619 117.236C419.619 118.388 419.391 119.396 418.935 120.26C418.503 121.1 417.879 121.784 417.063 122.312C416.247 122.84 415.311 123.224 414.255 123.464V123.608C416.319 123.848 417.855 124.496 418.863 125.552C419.895 126.584 420.411 127.952 420.411 129.656C420.411 131.144 420.051 132.476 419.331 133.652C418.635 134.804 417.543 135.716 416.055 136.388C414.591 137.036 412.707 137.36 410.403 137.36C409.035 137.36 407.763 137.252 406.587 137.036C405.411 136.82 404.295 136.46 403.239 135.956V132.5C404.319 133.052 405.471 133.472 406.695 133.76C407.943 134.048 409.131 134.192 410.259 134.192C412.443 134.192 414.015 133.784 414.975 132.968C415.935 132.128 416.415 130.964 416.415 129.476C416.415 128.516 416.163 127.736 415.659 127.136C415.155 126.512 414.387 126.056 413.355 125.768C412.323 125.456 411.039 125.3 409.503 125.3H407.163V122.168H409.539C411.003 122.168 412.191 121.988 413.103 121.628C414.015 121.244 414.687 120.716 415.119 120.044C415.551 119.372 415.767 118.604 415.767 117.74C415.767 116.588 415.383 115.7 414.615 115.076C413.871 114.428 412.791 114.104 411.375 114.104C410.511 114.104 409.707 114.2 408.963 114.392C408.243 114.584 407.583 114.836 406.983 115.148C406.383 115.46 405.795 115.808 405.219 116.192L403.347 113.564C403.995 113.084 404.715 112.64 405.507 112.232C406.323 111.824 407.223 111.512 408.207 111.296C409.215 111.056 410.307 110.936 411.483 110.936C414.147 110.936 416.163 111.524 417.531 112.7C418.923 113.852 419.619 115.364 419.619 117.236ZM432.553 110.936C434.065 110.936 435.409 111.176 436.585 111.656C437.761 112.112 438.685 112.796 439.357 113.708C440.053 114.62 440.401 115.76 440.401 117.128C440.401 118.16 440.185 119.06 439.753 119.828C439.321 120.596 438.745 121.28 438.025 121.88C437.305 122.456 436.501 122.96 435.613 123.392C436.621 123.896 437.545 124.472 438.385 125.12C439.249 125.744 439.933 126.476 440.437 127.316C440.965 128.156 441.229 129.164 441.229 130.34C441.229 131.78 440.869 133.028 440.149 134.084C439.453 135.116 438.457 135.92 437.161 136.496C435.865 137.072 434.353 137.36 432.625 137.36C430.777 137.36 429.193 137.084 427.873 136.532C426.577 135.98 425.593 135.2 424.921 134.192C424.249 133.16 423.913 131.912 423.913 130.448C423.913 129.272 424.153 128.252 424.633 127.388C425.113 126.524 425.749 125.78 426.541 125.156C427.333 124.532 428.197 124.004 429.133 123.572C428.317 123.092 427.573 122.552 426.901 121.952C426.229 121.328 425.701 120.62 425.317 119.828C424.933 119.036 424.741 118.124 424.741 117.092C424.741 115.748 425.089 114.632 425.785 113.744C426.481 112.832 427.417 112.136 428.593 111.656C429.793 111.176 431.113 110.936 432.553 110.936ZM427.585 130.376C427.585 131.552 427.993 132.524 428.809 133.292C429.625 134.036 430.873 134.408 432.553 134.408C433.657 134.408 434.569 134.24 435.289 133.904C436.033 133.544 436.597 133.064 436.981 132.464C437.365 131.84 437.557 131.132 437.557 130.34C437.557 129.548 437.341 128.852 436.909 128.252C436.501 127.652 435.925 127.124 435.181 126.668C434.461 126.188 433.621 125.756 432.661 125.372L432.121 125.156C431.137 125.564 430.309 126.02 429.637 126.524C428.965 127.028 428.449 127.592 428.089 128.216C427.753 128.84 427.585 129.56 427.585 130.376ZM432.517 113.924C431.341 113.924 430.357 114.212 429.565 114.788C428.797 115.364 428.413 116.204 428.413 117.308C428.413 118.1 428.605 118.772 428.989 119.324C429.373 119.876 429.889 120.356 430.537 120.764C431.185 121.148 431.893 121.52 432.661 121.88C433.429 121.544 434.113 121.184 434.713 120.8C435.313 120.392 435.793 119.912 436.153 119.36C436.513 118.784 436.693 118.1 436.693 117.308C436.693 116.204 436.309 115.364 435.541 114.788C434.773 114.212 433.765 113.924 432.517 113.924ZM462.803 131.312H459.239V137H455.531V131.312H443.615V128.288L455.459 111.188H459.239V128.072H462.803V131.312ZM455.531 121.088C455.531 120.512 455.531 119.96 455.531 119.432C455.555 118.904 455.579 118.4 455.603 117.92C455.627 117.416 455.639 116.96 455.639 116.552C455.663 116.12 455.687 115.736 455.711 115.4H455.567C455.375 115.88 455.135 116.372 454.847 116.876C454.583 117.38 454.307 117.824 454.019 118.208L447.215 128.072H455.531V121.088ZM468.14 137L478.4 114.68H464.9V111.296H482.504V114.032L472.28 137H468.14ZM503.07 124.112C503.07 126.2 502.902 128.06 502.566 129.692C502.254 131.324 501.75 132.716 501.054 133.868C500.382 134.996 499.482 135.86 498.354 136.46C497.25 137.06 495.918 137.36 494.358 137.36C492.39 137.36 490.77 136.832 489.498 135.776C488.226 134.72 487.278 133.208 486.654 131.24C486.03 129.248 485.718 126.872 485.718 124.112C485.718 121.328 485.994 118.952 486.546 116.984C487.122 115.016 488.046 113.516 489.318 112.484C490.59 111.428 492.27 110.9 494.358 110.9C496.326 110.9 497.946 111.428 499.218 112.484C500.514 113.516 501.474 115.016 502.098 116.984C502.746 118.952 503.07 121.328 503.07 124.112ZM489.534 124.112C489.534 126.344 489.69 128.204 490.002 129.692C490.314 131.18 490.818 132.296 491.514 133.04C492.234 133.784 493.182 134.156 494.358 134.156C495.534 134.156 496.47 133.796 497.166 133.076C497.886 132.332 498.402 131.216 498.714 129.728C499.05 128.216 499.218 126.344 499.218 124.112C499.218 121.88 499.05 120.032 498.714 118.568C498.402 117.08 497.886 115.964 497.166 115.22C496.47 114.476 495.534 114.104 494.358 114.104C493.182 114.104 492.234 114.476 491.514 115.22C490.818 115.964 490.314 117.08 490.002 118.568C489.69 120.032 489.534 121.88 489.534 124.112ZM524.607 131.312H521.043V137H517.335V131.312H505.419V128.288L517.263 111.188H521.043V128.072H524.607V131.312ZM517.335 121.088C517.335 120.512 517.335 119.96 517.335 119.432C517.359 118.904 517.383 118.4 517.407 117.92C517.431 117.416 517.443 116.96 517.443 116.552C517.467 116.12 517.491 115.736 517.515 115.4H517.371C517.179 115.88 516.939 116.372 516.651 116.876C516.387 117.38 516.111 117.824 515.823 118.208L509.019 128.072H517.335V121.088ZM537.757 120.512H532.969V137H529.153V120.512H525.877V118.712L529.153 117.524V116.3C529.153 114.644 529.405 113.324 529.909 112.34C530.437 111.332 531.181 110.6 532.141 110.144C533.101 109.688 534.265 109.46 535.633 109.46C536.473 109.46 537.241 109.532 537.937 109.676C538.633 109.82 539.221 109.976 539.701 110.144L538.729 113.06C538.345 112.94 537.901 112.832 537.397 112.736C536.893 112.616 536.365 112.556 535.813 112.556C534.853 112.556 534.133 112.868 533.653 113.492C533.197 114.116 532.969 115.064 532.969 116.336V117.596H537.757V120.512ZM548.968 137.36C547.192 137.36 545.632 137.012 544.288 136.316C542.944 135.62 541.9 134.54 541.156 133.076C540.412 131.588 540.04 129.704 540.04 127.424C540.04 125.024 540.436 123.08 541.228 121.592C542.044 120.104 543.136 119.012 544.504 118.316C545.896 117.596 547.48 117.236 549.256 117.236C550.336 117.236 551.344 117.356 552.28 117.596C553.24 117.812 554.032 118.064 554.656 118.352L553.504 121.448C552.832 121.184 552.112 120.956 551.344 120.764C550.6 120.572 549.892 120.476 549.22 120.476C548.02 120.476 547.024 120.74 546.232 121.268C545.464 121.772 544.888 122.54 544.504 123.572C544.144 124.58 543.964 125.852 543.964 127.388C543.964 128.852 544.156 130.088 544.54 131.096C544.924 132.104 545.488 132.872 546.232 133.4C547 133.904 547.948 134.156 549.076 134.156C550.156 134.156 551.104 134.036 551.92 133.796C552.736 133.556 553.504 133.244 554.224 132.86V136.172C553.528 136.58 552.772 136.88 551.956 137.072C551.14 137.264 550.144 137.36 548.968 137.36ZM574.752 137H557.472V134.048L564.096 127.316C565.392 125.996 566.472 124.856 567.336 123.896C568.2 122.912 568.848 121.976 569.28 121.088C569.712 120.176 569.928 119.192 569.928 118.136C569.928 116.816 569.544 115.832 568.776 115.184C568.008 114.512 567.012 114.176 565.788 114.176C564.612 114.176 563.556 114.404 562.62 114.86C561.684 115.292 560.712 115.904 559.704 116.696L557.652 114.14C558.348 113.54 559.092 113 559.884 112.52C560.7 112.04 561.6 111.656 562.584 111.368C563.592 111.08 564.696 110.936 565.896 110.936C567.528 110.936 568.932 111.224 570.108 111.8C571.284 112.352 572.184 113.144 572.808 114.176C573.456 115.208 573.78 116.42 573.78 117.812C573.78 118.844 573.624 119.816 573.312 120.728C573 121.616 572.544 122.492 571.944 123.356C571.368 124.22 570.66 125.096 569.82 125.984C568.98 126.872 568.056 127.808 567.048 128.792L562.26 133.436V133.616H574.752V137ZM578.182 126.056C578.182 124.568 578.278 123.104 578.47 121.664C578.686 120.224 579.046 118.868 579.55 117.596C580.078 116.3 580.798 115.16 581.71 114.176C582.622 113.168 583.774 112.388 585.166 111.836C586.582 111.26 588.286 110.972 590.278 110.972C590.782 110.972 591.346 110.996 591.97 111.044C592.618 111.068 593.146 111.14 593.554 111.26V114.464C593.098 114.32 592.594 114.212 592.042 114.14C591.514 114.068 590.986 114.032 590.458 114.032C588.802 114.032 587.434 114.284 586.354 114.788C585.274 115.292 584.422 115.988 583.798 116.876C583.174 117.764 582.718 118.796 582.43 119.972C582.142 121.124 581.962 122.384 581.89 123.752H582.106C582.466 123.176 582.91 122.66 583.438 122.204C583.966 121.748 584.614 121.388 585.382 121.124C586.15 120.86 587.038 120.728 588.046 120.728C589.534 120.728 590.83 121.04 591.934 121.664C593.062 122.288 593.926 123.188 594.526 124.364C595.15 125.54 595.462 126.968 595.462 128.648C595.462 130.448 595.114 132.008 594.418 133.328C593.746 134.624 592.786 135.62 591.538 136.316C590.314 137.012 588.838 137.36 587.11 137.36C585.862 137.36 584.698 137.132 583.618 136.676C582.538 136.22 581.59 135.524 580.774 134.588C579.958 133.652 579.322 132.476 578.866 131.06C578.41 129.62 578.182 127.952 578.182 126.056ZM587.074 134.192C588.442 134.192 589.558 133.748 590.422 132.86C591.286 131.948 591.718 130.544 591.718 128.648C591.718 127.136 591.334 125.936 590.566 125.048C589.822 124.16 588.694 123.716 587.182 123.716C586.15 123.716 585.25 123.932 584.482 124.364C583.714 124.796 583.114 125.348 582.682 126.02C582.25 126.692 582.034 127.376 582.034 128.072C582.034 128.816 582.142 129.548 582.358 130.268C582.574 130.988 582.886 131.648 583.294 132.248C583.726 132.848 584.254 133.328 584.878 133.688C585.502 134.024 586.234 134.192 587.074 134.192ZM606.668 137.36C604.34 137.36 602.456 136.52 601.016 134.84C599.6 133.16 598.892 130.664 598.892 127.352C598.892 124.016 599.612 121.496 601.052 119.792C602.492 118.088 604.388 117.236 606.74 117.236C607.724 117.236 608.576 117.368 609.296 117.632C610.04 117.872 610.676 118.208 611.204 118.64C611.756 119.072 612.224 119.552 612.608 120.08H612.824C612.776 119.744 612.716 119.264 612.644 118.64C612.572 117.992 612.536 117.416 612.536 116.912V109.64H616.352V137H613.364L612.716 134.408H612.536C612.176 134.96 611.72 135.464 611.168 135.92C610.64 136.352 610.004 136.7 609.26 136.964C608.516 137.228 607.652 137.36 606.668 137.36ZM607.568 134.228C609.44 134.228 610.76 133.712 611.528 132.68C612.296 131.624 612.68 130.052 612.68 127.964V127.388C612.68 125.108 612.308 123.368 611.564 122.168C610.844 120.968 609.5 120.368 607.532 120.368C605.972 120.368 604.796 121.004 604.004 122.276C603.212 123.524 602.816 125.24 602.816 127.424C602.816 129.608 603.212 131.288 604.004 132.464C604.796 133.64 605.984 134.228 607.568 134.228ZM621.108 126.056C621.108 124.568 621.204 123.104 621.396 121.664C621.612 120.224 621.972 118.868 622.476 117.596C623.004 116.3 623.724 115.16 624.636 114.176C625.548 113.168 626.7 112.388 628.092 111.836C629.508 111.26 631.212 110.972 633.204 110.972C633.708 110.972 634.272 110.996 634.896 111.044C635.544 111.068 636.072 111.14 636.48 111.26V114.464C636.024 114.32 635.52 114.212 634.968 114.14C634.44 114.068 633.912 114.032 633.384 114.032C631.728 114.032 630.36 114.284 629.28 114.788C628.2 115.292 627.348 115.988 626.724 116.876C626.1 117.764 625.644 118.796 625.356 119.972C625.068 121.124 624.888 122.384 624.816 123.752H625.032C625.392 123.176 625.836 122.66 626.364 122.204C626.892 121.748 627.54 121.388 628.308 121.124C629.076 120.86 629.964 120.728 630.972 120.728C632.46 120.728 633.756 121.04 634.86 121.664C635.988 122.288 636.852 123.188 637.452 124.364C638.076 125.54 638.388 126.968 638.388 128.648C638.388 130.448 638.04 132.008 637.344 133.328C636.672 134.624 635.712 135.62 634.464 136.316C633.24 137.012 631.764 137.36 630.036 137.36C628.788 137.36 627.624 137.132 626.544 136.676C625.464 136.22 624.516 135.524 623.7 134.588C622.884 133.652 622.248 132.476 621.792 131.06C621.336 129.62 621.108 127.952 621.108 126.056ZM630 134.192C631.368 134.192 632.484 133.748 633.348 132.86C634.212 131.948 634.644 130.544 634.644 128.648C634.644 127.136 634.26 125.936 633.492 125.048C632.748 124.16 631.62 123.716 630.108 123.716C629.076 123.716 628.176 123.932 627.408 124.364C626.64 124.796 626.04 125.348 625.608 126.02C625.176 126.692 624.96 127.376 624.96 128.072C624.96 128.816 625.068 129.548 625.284 130.268C625.5 130.988 625.812 131.648 626.22 132.248C626.652 132.848 627.18 133.328 627.804 133.688C628.428 134.024 629.16 134.192 630 134.192ZM658.917 124.112C658.917 126.2 658.749 128.06 658.413 129.692C658.101 131.324 657.597 132.716 656.901 133.868C656.229 134.996 655.329 135.86 654.201 136.46C653.097 137.06 651.765 137.36 650.205 137.36C648.237 137.36 646.617 136.832 645.345 135.776C644.073 134.72 643.125 133.208 642.501 131.24C641.877 129.248 641.565 126.872 641.565 124.112C641.565 121.328 641.841 118.952 642.393 116.984C642.969 115.016 643.893 113.516 645.165 112.484C646.437 111.428 648.117 110.9 650.205 110.9C652.173 110.9 653.793 111.428 655.065 112.484C656.361 113.516 657.321 115.016 657.945 116.984C658.593 118.952 658.917 121.328 658.917 124.112ZM645.381 124.112C645.381 126.344 645.537 128.204 645.849 129.692C646.161 131.18 646.665 132.296 647.361 133.04C648.081 133.784 649.029 134.156 650.205 134.156C651.381 134.156 652.317 133.796 653.013 133.076C653.733 132.332 654.249 131.216 654.561 129.728C654.897 128.216 655.065 126.344 655.065 124.112C655.065 121.88 654.897 120.032 654.561 118.568C654.249 117.08 653.733 115.964 653.013 115.22C652.317 114.476 651.381 114.104 650.205 114.104C649.029 114.104 648.081 114.476 647.361 115.22C646.665 115.964 646.161 117.08 645.849 118.568C645.537 120.032 645.381 121.88 645.381 124.112ZM673.003 120.512H668.215V137H664.399V120.512H661.123V118.712L664.399 117.524V116.3C664.399 114.644 664.651 113.324 665.155 112.34C665.683 111.332 666.427 110.6 667.387 110.144C668.347 109.688 669.511 109.46 670.879 109.46C671.719 109.46 672.487 109.532 673.183 109.676C673.879 109.82 674.467 109.976 674.947 110.144L673.975 113.06C673.591 112.94 673.147 112.832 672.643 112.736C672.139 112.616 671.611 112.556 671.059 112.556C670.099 112.556 669.379 112.868 668.899 113.492C668.443 114.116 668.215 115.064 668.215 116.336V117.596H673.003V120.512ZM686.806 137H683.026V119.936C683.026 119.336 683.026 118.784 683.026 118.28C683.05 117.752 683.074 117.248 683.098 116.768C683.122 116.264 683.146 115.784 683.17 115.328C682.858 115.64 682.534 115.94 682.198 116.228C681.862 116.516 681.478 116.852 681.046 117.236L678.238 119.504L676.294 117.056L683.638 111.296H686.806V137ZM700.82 116.228C700.82 117.02 700.796 117.776 700.748 118.496C700.724 119.192 700.688 119.744 700.64 120.152H700.82C701.372 119.336 702.116 118.652 703.052 118.1C703.988 117.548 705.2 117.272 706.688 117.272C709.016 117.272 710.888 118.112 712.304 119.792C713.744 121.472 714.464 123.968 714.464 127.28C714.464 129.512 714.14 131.372 713.492 132.86C712.844 134.348 711.932 135.476 710.756 136.244C709.58 136.988 708.212 137.36 706.652 137.36C705.14 137.36 703.928 137.096 703.016 136.568C702.104 136.016 701.372 135.368 700.82 134.624H700.532L699.812 137H697.004V109.64H700.82V116.228ZM705.788 120.368C704.54 120.368 703.556 120.608 702.836 121.088C702.116 121.568 701.6 122.3 701.288 123.284C700.976 124.268 700.82 125.516 700.82 127.028V127.316C700.82 129.548 701.18 131.264 701.9 132.464C702.62 133.64 703.94 134.228 705.86 134.228C707.396 134.228 708.56 133.628 709.352 132.428C710.144 131.228 710.54 129.5 710.54 127.244C710.54 124.964 710.144 123.248 709.352 122.096C708.56 120.944 707.372 120.368 705.788 120.368ZM728.796 120.512H724.008V137H720.192V120.512H716.916V118.712L720.192 117.524V116.3C720.192 114.644 720.444 113.324 720.948 112.34C721.476 111.332 722.22 110.6 723.18 110.144C724.14 109.688 725.304 109.46 726.672 109.46C727.512 109.46 728.28 109.532 728.976 109.676C729.672 109.82 730.26 109.976 730.74 110.144L729.768 113.06C729.384 112.94 728.94 112.832 728.436 112.736C727.932 112.616 727.404 112.556 726.852 112.556C725.892 112.556 725.172 112.868 724.692 113.492C724.236 114.116 724.008 115.064 724.008 116.336V117.596H728.796V120.512ZM733.851 137L744.111 114.68H730.611V111.296H748.215V114.032L737.991 137H733.851ZM769.717 131.312H766.153V137H762.445V131.312H750.529V128.288L762.373 111.188H766.153V128.072H769.717V131.312ZM762.445 121.088C762.445 120.512 762.445 119.96 762.445 119.432C762.469 118.904 762.493 118.4 762.517 117.92C762.541 117.416 762.553 116.96 762.553 116.552C762.577 116.12 762.601 115.736 762.625 115.4H762.481C762.289 115.88 762.049 116.372 761.761 116.876C761.497 117.38 761.221 117.824 760.933 118.208L754.129 128.072H762.445V121.088ZM789.31 122.276C789.31 123.74 789.202 125.204 788.986 126.668C788.77 128.108 788.41 129.476 787.906 130.772C787.402 132.044 786.682 133.184 785.746 134.192C784.834 135.176 783.67 135.956 782.254 136.532C780.862 137.084 779.17 137.36 777.178 137.36C776.698 137.36 776.134 137.336 775.486 137.288C774.838 137.24 774.298 137.156 773.866 137.036V133.832C774.322 133.976 774.826 134.084 775.378 134.156C775.954 134.228 776.506 134.264 777.034 134.264C778.69 134.264 780.046 134.024 781.102 133.544C782.182 133.04 783.034 132.344 783.658 131.456C784.306 130.568 784.774 129.536 785.062 128.36C785.35 127.184 785.518 125.936 785.566 124.616H785.35C784.99 125.168 784.546 125.672 784.018 126.128C783.49 126.584 782.842 126.944 782.074 127.208C781.33 127.472 780.43 127.604 779.374 127.604C777.91 127.604 776.614 127.292 775.486 126.668C774.382 126.044 773.53 125.156 772.93 124.004C772.33 122.828 772.03 121.4 772.03 119.72C772.03 117.896 772.366 116.336 773.038 115.04C773.734 113.72 774.706 112.712 775.954 112.016C777.226 111.32 778.702 110.972 780.382 110.972C781.63 110.972 782.794 111.2 783.874 111.656C784.954 112.112 785.902 112.808 786.718 113.744C787.534 114.68 788.17 115.856 788.626 117.272C789.082 118.688 789.31 120.356 789.31 122.276ZM780.418 114.104C779.05 114.104 777.934 114.56 777.07 115.472C776.206 116.384 775.774 117.776 775.774 119.648C775.774 121.184 776.134 122.396 776.854 123.284C777.598 124.172 778.738 124.616 780.274 124.616C781.33 124.616 782.242 124.4 783.01 123.968C783.778 123.512 784.378 122.96 784.81 122.312C785.242 121.64 785.458 120.944 785.458 120.224C785.458 119.504 785.35 118.784 785.134 118.064C784.918 117.344 784.606 116.684 784.198 116.084C783.79 115.484 783.262 115.004 782.614 114.644C781.99 114.284 781.258 114.104 780.418 114.104ZM809.984 124.112C809.984 126.2 809.816 128.06 809.48 129.692C809.168 131.324 808.664 132.716 807.968 133.868C807.296 134.996 806.396 135.86 805.268 136.46C804.164 137.06 802.832 137.36 801.272 137.36C799.304 137.36 797.684 136.832 796.412 135.776C795.14 134.72 794.192 133.208 793.568 131.24C792.944 129.248 792.632 126.872 792.632 124.112C792.632 121.328 792.908 118.952 793.46 116.984C794.036 115.016 794.96 113.516 796.232 112.484C797.504 111.428 799.184 110.9 801.272 110.9C803.24 110.9 804.86 111.428 806.132 112.484C807.428 113.516 808.388 115.016 809.012 116.984C809.66 118.952 809.984 121.328 809.984 124.112ZM796.448 124.112C796.448 126.344 796.604 128.204 796.916 129.692C797.228 131.18 797.732 132.296 798.428 133.04C799.148 133.784 800.096 134.156 801.272 134.156C802.448 134.156 803.384 133.796 804.08 133.076C804.8 132.332 805.316 131.216 805.628 129.728C805.964 128.216 806.132 126.344 806.132 124.112C806.132 121.88 805.964 120.032 805.628 118.568C805.316 117.08 804.8 115.964 804.08 115.22C803.384 114.476 802.448 114.104 801.272 114.104C800.096 114.104 799.148 114.476 798.428 115.22C797.732 115.964 797.228 117.08 796.916 118.568C796.604 120.032 796.448 121.88 796.448 124.112ZM831.521 131.312H827.957V137H824.249V131.312H812.333V128.288L824.177 111.188H827.957V128.072H831.521V131.312ZM824.249 121.088C824.249 120.512 824.249 119.96 824.249 119.432C824.273 118.904 824.297 118.4 824.321 117.92C824.345 117.416 824.357 116.96 824.357 116.552C824.381 116.12 824.405 115.736 824.429 115.4H824.285C824.093 115.88 823.853 116.372 823.565 116.876C823.301 117.38 823.025 117.824 822.737 118.208L815.933 128.072H824.249V121.088Z" fill="#676767"/>
<path d="M844.448 124.876C844.448 123.94 844.688 123.28 845.168 122.896C845.648 122.512 846.224 122.32 846.896 122.32C847.592 122.32 848.18 122.512 848.66 122.896C849.14 123.28 849.38 123.94 849.38 124.876C849.38 125.812 849.14 126.484 848.66 126.892C848.18 127.3 847.592 127.504 846.896 127.504C846.224 127.504 845.648 127.3 845.168 126.892C844.688 126.484 844.448 125.812 844.448 124.876ZM854.292 124.876C854.292 123.94 854.532 123.28 855.012 122.896C855.492 122.512 856.068 122.32 856.74 122.32C857.436 122.32 858.024 122.512 858.504 122.896C858.984 123.28 859.224 123.94 859.224 124.876C859.224 125.812 858.984 126.484 858.504 126.892C858.024 127.3 857.436 127.504 856.74 127.504C856.068 127.504 855.492 127.3 855.012 126.892C854.532 126.484 854.292 125.812 854.292 124.876ZM864.136 124.876C864.136 123.94 864.376 123.28 864.856 122.896C865.336 122.512 865.912 122.32 866.584 122.32C867.28 122.32 867.868 122.512 868.348 122.896C868.828 123.28 869.068 123.94 869.068 124.876C869.068 125.812 868.828 126.484 868.348 126.892C867.868 127.3 867.28 127.504 866.584 127.504C865.912 127.504 865.336 127.3 864.856 126.892C864.376 126.484 864.136 125.812 864.136 124.876Z" fill="#676767"/>
<path fill-rule="evenodd" clip-rule="evenodd" d="M736.581 707.247L718 690.769L721.123 688L736.581 701.708L752.039 688L755.162 690.769L736.581 707.247Z" fill="#B3B3B3"/>
<defs>
<filter id="filter0_d_1050_390" x="1294.08" y="101.083" width="48.834" height="48.8333" filterUnits="userSpaceOnUse" color-interpolation-filters="sRGB">
<feFlood flood-opacity="0" result="BackgroundImageFix"/>
<feColorMatrix in="SourceAlpha" type="matrix" values="0 0 0 0 0 0 0 0 0 0 0 0 0 0 0 0 0 0 127 0" result="hardAlpha"/>
<feOffset dy="4"/>
<feGaussianBlur stdDeviation="2"/>
<feComposite in2="hardAlpha" operator="out"/>
<feColorMatrix type="matrix" values="0 0 0 0 0 0 0 0 0 0 0 0 0 0 0 0 0 0 0.25 0"/>
<feBlend mode="normal" in2="BackgroundImageFix" result="effect1_dropShadow_1050_390"/>
<feBlend mode="normal" in="SourceGraphic" in2="effect1_dropShadow_1050_390" result="shape"/>
</filter>
</defs>
</svg>
