<?xml version="1.0" standalone="no"?>
<!DOCTYPE svg PUBLIC "-//W3C//DTD SVG 20010904//EN"
 "http://www.w3.org/TR/2001/REC-SVG-20010904/DTD/svg10.dtd">
<svg version="1.0" xmlns="http://www.w3.org/2000/svg"
 width="512.000000pt" height="512.000000pt" viewBox="0 0 512.000000 512.000000"
 preserveAspectRatio="xMidYMid meet">

<g transform="translate(0.000000,512.000000) scale(0.100000,-0.100000)"
fill="#000000" stroke="none">
<path d="M2254 3432 c-112 -60 -236 -162 -425 -353 l-176 -177 -94 -7 c-366
-26 -680 -97 -987 -225 -150 -62 -142 -44 -142 -332 0 -285 -6 -272 131 -306
47 -12 93 -24 102 -28 15 -5 17 1 17 46 0 29 11 85 25 127 126 375 585 495
873 228 116 -108 173 -233 173 -385 l1 -90 814 0 814 0 0 78 c0 299 242 543
538 542 180 -1 351 -96 454 -254 41 -63 78 -167 78 -220 0 -56 7 -58 113 -25
65 20 101 37 112 52 13 18 15 69 15 329 0 305 0 307 -23 334 -21 24 -41 29
-302 75 -154 27 -283 49 -286 49 -4 0 -111 128 -238 284 -127 156 -238 286
-247 290 -8 3 -298 6 -642 6 l-627 -1 -71 -37z m466 -327 l0 -205 -415 0
c-236 0 -415 4 -415 9 0 12 199 202 286 273 39 32 97 73 129 93 l59 35 178 0
178 0 0 -205z m951 18 c84 -104 159 -196 167 -205 14 -17 -9 -18 -471 -18
l-487 0 0 205 0 205 319 0 320 0 152 -187z m-660 -532 c41 -41 40 -90 -2 -125
l-31 -26 -218 0 -218 0 -31 26 c-25 20 -31 34 -31 64 0 30 6 44 31 64 l31 26
220 0 220 0 29 -29z"/>
<path d="M1083 2349 c-113 -44 -213 -172 -228 -294 -8 -61 8 -153 37 -209 31
-60 101 -129 165 -162 53 -26 67 -29 158 -29 121 0 167 18 249 95 76 72 110
150 111 255 0 162 -86 290 -231 345 -73 27 -189 27 -261 -1z"/>
<path d="M3783 2349 c-66 -25 -157 -107 -187 -168 -93 -183 -26 -393 156 -492
60 -32 68 -34 163 -34 121 0 167 18 249 95 98 93 137 231 101 356 -31 109 -91
181 -195 235 -65 33 -213 38 -287 8z"/>
</g>
</svg>
