<svg width="85" height="90" viewBox="0 0 85 90" fill="none" xmlns="http://www.w3.org/2000/svg">
<path d="M24.2283 63.1576C23.9438 63.4587 23.9573 63.9334 24.2583 64.2179C24.5594 64.5023 25.0341 64.4889 25.3186 64.1878L24.2283 63.1576ZM43.014 45.4606C43.2985 45.1595 43.285 44.6848 42.9839 44.4004C42.6829 44.1159 42.2082 44.1293 41.9237 44.4304L43.014 45.4606ZM41.9237 44.4304C41.6392 44.7315 41.6527 45.2061 41.9537 45.4906C42.2548 45.7751 42.7295 45.7617 43.014 45.4606L41.9237 44.4304ZM60.7094 26.7334C60.9939 26.4323 60.9804 25.9576 60.6794 25.6731C60.3783 25.3886 59.9036 25.4021 59.6191 25.7032L60.7094 26.7334ZM43.014 44.4304C42.7295 44.1293 42.2548 44.1159 41.9537 44.4004C41.6527 44.6848 41.6392 45.1595 41.9237 45.4606L43.014 44.4304ZM59.6191 64.1878C59.9036 64.4889 60.3783 64.5023 60.6794 64.2179C60.9804 63.9334 60.9939 63.4587 60.7094 63.1576L59.6191 64.1878ZM41.9237 45.4606C42.2082 45.7617 42.6829 45.7751 42.9839 45.4906C43.285 45.2061 43.2985 44.7315 43.014 44.4304L41.9237 45.4606ZM25.3186 25.7032C25.0341 25.4021 24.5594 25.3886 24.2583 25.6731C23.9573 25.9576 23.9438 26.4323 24.2283 26.7334L25.3186 25.7032ZM25.3186 64.1878L43.014 45.4606L41.9237 44.4304L24.2283 63.1576L25.3186 64.1878ZM43.014 45.4606L60.7094 26.7334L59.6191 25.7032L41.9237 44.4304L43.014 45.4606ZM41.9237 45.4606L59.6191 64.1878L60.7094 63.1576L43.014 44.4304L41.9237 45.4606ZM43.014 44.4304L25.3186 25.7032L24.2283 26.7334L41.9237 45.4606L43.014 44.4304Z" fill="#222222"/>
</svg>
