<svg width="14" height="14" viewBox="0 0 14 14" fill="none" xmlns="http://www.w3.org/2000/svg">
<g clip-path="url(#clip0_1552_21597)">
<path d="M7.5 9.00006L4.5 9.54006L5 6.50006L10.73 0.790061C10.823 0.696333 10.9336 0.621938 11.0554 0.57117C11.1773 0.520401 11.308 0.494263 11.44 0.494263C11.572 0.494263 11.7027 0.520401 11.8246 0.57117C11.9464 0.621938 12.057 0.696333 12.15 0.790061L13.21 1.85006C13.3037 1.94302 13.3781 2.05363 13.4289 2.17548C13.4797 2.29734 13.5058 2.42805 13.5058 2.56006C13.5058 2.69207 13.4797 2.82278 13.4289 2.94464C13.3781 3.0665 13.3037 3.1771 13.21 3.27006L7.5 9.00006Z" stroke="#6B7280" stroke-linecap="round" stroke-linejoin="round"/>
<path d="M12 9.5V12.5C12 12.7652 11.8946 13.0196 11.7071 13.2071C11.5196 13.3946 11.2652 13.5 11 13.5H1.5C1.23478 13.5 0.98043 13.3946 0.792893 13.2071C0.605357 13.0196 0.5 12.7652 0.5 12.5V3C0.5 2.73478 0.605357 2.48043 0.792893 2.29289C0.98043 2.10536 1.23478 2 1.5 2H4.5" stroke="#6B7280" stroke-linecap="round" stroke-linejoin="round"/>
</g>
<defs>
<clipPath id="clip0_1552_21597">
<rect width="14" height="14" fill="white"/>
</clipPath>
</defs>
</svg>
