<svg width="29" height="35" viewBox="0 0 29 35" fill="none" xmlns="http://www.w3.org/2000/svg">
<path d="M28 34L28 27.9691C28 26.9925 28 26.5042 27.8874 26.1048C27.604 25.1002 26.8189 24.3151 25.8143 24.0318C25.4149 23.9191 24.9266 23.9191 23.95 23.9191H5.05C4.07337 23.9191 3.58505 23.9191 3.18568 24.0318C2.18108 24.3151 1.39596 25.1002 1.11263 26.1048C1 26.5042 0.999999 26.9925 0.999999 27.9691L0.999998 34M22.96 8.44979C22.96 12.5642 19.5753 15.8996 15.4 15.8996C11.2247 15.8996 7.84 12.5642 7.84 8.44979C7.84 4.33539 11.2247 1 15.4 1C19.5753 1 22.96 4.33539 22.96 8.44979Z" stroke="white" stroke-width="2" stroke-linecap="round" stroke-linejoin="round"/>
</svg>
