<?xml version="1.0" standalone="no"?>
<!DOCTYPE svg PUBLIC "-//W3C//DTD SVG 20010904//EN"
 "http://www.w3.org/TR/2001/REC-SVG-20010904/DTD/svg10.dtd">
<svg version="1.0" xmlns="http://www.w3.org/2000/svg"
 width="512.000000pt" height="512.000000pt" viewBox="0 0 512.000000 512.000000"
 preserveAspectRatio="xMidYMid meet">

<g transform="translate(0.000000,512.000000) scale(0.100000,-0.100000)"
fill="#777777" stroke="none">
<path d="M2275 4674 c-923 -129 -1650 -832 -1818 -1759 -18 -101 -22 -157 -22
-355 0 -265 15 -374 79 -596 206 -714 795 -1283 1518 -1468 204 -52 366 -70
593 -63 270 8 477 49 715 143 634 251 1116 798 1284 1456 186 728 -24 1497
-554 2028 -318 320 -690 515 -1145 601 -149 28 -491 35 -650 13z m424 -414
c412 -37 779 -209 1070 -501 663 -667 661 -1737 -5 -2403 -462 -462 -1138
-620 -1753 -410 -364 124 -702 394 -900 717 -271 444 -330 962 -165 1446 216
631 799 1091 1458 1150 132 12 168 12 295 1z"/>
<path d="M2503 3621 c-17 -5 -44 -17 -60 -27 -15 -11 -180 -172 -365 -359
-222 -225 -342 -353 -353 -377 -20 -50 -19 -124 4 -174 32 -69 115 -124 191
-124 74 0 101 19 267 183 l163 161 0 -631 0 -630 23 -44 c15 -29 40 -54 71
-74 41 -25 58 -29 116 -29 58 0 75 4 116 29 31 20 56 45 71 74 l23 44 0 631 0
631 158 -157 c164 -164 199 -188 272 -188 154 0 260 175 188 308 -25 46 -687
716 -729 737 -34 18 -115 26 -156 16z"/>
</g>
</svg>
