<svg width="14" height="14" viewBox="0 0 14 14" fill="none" xmlns="http://www.w3.org/2000/svg">
<path d="M10.5 6.13C11.001 6.22973 11.4448 6.51734 11.7404 6.93385C12.0361 7.35036 12.1611 7.8642 12.09 8.37L11.48 12.64C11.4461 12.8803 11.3259 13.1 11.1419 13.2582C10.9579 13.4165 10.7227 13.5024 10.48 13.5H4.00002C3.79975 13.5002 3.60402 13.4402 3.43821 13.3279C3.27239 13.2156 3.14413 13.0561 3.07002 12.87L2.00002 10.21C1.81688 9.73991 1.81816 9.21797 2.00361 8.74879C2.18906 8.2796 2.54497 7.89784 3.00002 7.68L4.35002 7V2C4.35002 1.60218 4.50806 1.22064 4.78936 0.93934C5.07067 0.658035 5.4522 0.5 5.85002 0.5C6.24785 0.5 6.62938 0.658035 6.91069 0.93934C7.19199 1.22064 7.35002 1.60218 7.35002 2V5.5L10.5 6.13Z" stroke="#000001" stroke-linecap="round" stroke-linejoin="round"/>
</svg>
